<svg xmlns="http://www.w3.org/2000/svg" viewBox="0 0 136.34 120.26"><defs><style>.cls-1{isolation:isolate;}.cls-2{fill:#45d0c1;}.cls-3,.cls-39{opacity:0.8;}.cls-10,.cls-4,.cls-5,.cls-6,.cls-7,.cls-8,.cls-9{fill:#fff;}.cls-4,.cls-45{opacity:0;}.cls-5{opacity:0.05;}.cls-11,.cls-6{opacity:0.1;}.cls-7{opacity:0.15;}.cls-27,.cls-8{opacity:0.2;}.cls-9{opacity:0.25;}.cls-10{opacity:0.3;}.cls-12{fill:#c3c5c5;}.cls-13{fill:#e6e7ec;}.cls-14{fill:#42e8cf;}.cls-15{fill:#adadad;}.cls-16{fill:#8fedff;}.cls-17{fill:#c5f9ff;}.cls-18{fill:#70d8e5;}.cls-19{fill:#33b3a0;}.cls-20{fill:#efb185;}.cls-21{fill:#e6a376;}.cls-22{fill:#cace7a;}.cls-23{fill:#111114;}.cls-24{fill:#ebf2a5;}.cls-25{fill:#252625;}.cls-26{fill:#4d2201;}.cls-28{fill:#33ade3;}.cls-29{fill:#b539df;}.cls-30{fill:#4d0169;}.cls-31{fill:#6e0095;}.cls-32{fill:#452617;}.cls-33{fill:#414042;}.cls-34{fill:#303030;}.cls-35{fill:#d67912;}.cls-36{fill:#ed8001;}.cls-37{fill:#facd00;}.cls-38{mix-blend-mode:overlay;}.cls-39,.cls-40,.cls-41,.cls-42,.cls-43,.cls-44,.cls-45{fill:#fcfdfd;}.cls-40{opacity:0.67;}.cls-41{opacity:0.53;}.cls-42{opacity:0.4;}.cls-43{opacity:0.27;}.cls-44{opacity:0.13;}</style></defs><title>Ativo 1</title><g class="cls-1"><g id="Camada_2" data-name="Camada 2"><g id="Layer_1" data-name="Layer 1"><path class="cls-2" d="M113.28,56.68c-25.63-15-66.86-15.57-92.1-1.22s-24.92,38.15.71,53.17S88.74,124.2,114,109.85,138.9,71.7,113.28,56.68Z"/><g class="cls-3"><path class="cls-4" d="M23.54,36.15A11.77,11.77,0,1,1,11.77,24.38,11.77,11.77,0,0,1,23.54,36.15Z"/><path class="cls-5" d="M21.7,36.27a9.93,9.93,0,1,1-9.93-9.93A9.94,9.94,0,0,1,21.7,36.27Z"/><path class="cls-6" d="M19.87,36.4a8.1,8.1,0,1,1-8.1-8.1A8.1,8.1,0,0,1,19.87,36.4Z"/><path class="cls-7" d="M18,36.52a6.26,6.26,0,1,1-6.26-6.26A6.26,6.26,0,0,1,18,36.52Z"/><path class="cls-8" d="M16.19,36.65a4.42,4.42,0,1,1-4.42-4.43A4.42,4.42,0,0,1,16.19,36.65Z"/><path class="cls-9" d="M14.36,36.77a2.59,2.59,0,1,1-2.59-2.58A2.59,2.59,0,0,1,14.36,36.77Z"/><path class="cls-10" d="M12.52,36.9a.75.75,0,1,1-.75-.75A.75.75,0,0,1,12.52,36.9Z"/></g><g class="cls-11"><path d="M9.79,83.17l36.43,21.16c2.31,1.34,6.93,1.15,9.26-.2,16.1-9.3,63.54-37,63.54-37,2.33-1.35,2.34-3.51,0-4.85L82.24,40.89Z"/></g><path class="cls-12" d="M18,81.6c.48,1.78,31,18.05,31,18.05,2,1.15,5.94,1,7.94-.19,13.82-8,54.19-31.53,54.19-31.53,2-1.15,2.59-4.13.62-5.28L80,45.2S13.49,65,18,81.6Z"/><path class="cls-13" d="M17.78,80.2,49,98.37c2,1.14,5.94,1,7.94-.18,13.82-8,54.54-31.74,54.54-31.74,2-1.16,2-3,0-4.16L80,43.92Z"/><path class="cls-12" d="M9.54,36.67a6,6,0,0,1,.11-.7,1.6,1.6,0,0,0,0-.21,5.93,5.93,0,0,1,.24-.71.42.42,0,0,1,0-.12c.09-.19.18-.4.28-.58s.1-.18.16-.27a3.94,3.94,0,0,1,.31-.45l.09-.13a3.75,3.75,0,0,1,.47-.5l.13-.11a2.58,2.58,0,0,1,.57-.41L66.88.78a3.5,3.5,0,0,1,.64-.27l.22-.06a1.45,1.45,0,0,1,.3,0,1.1,1.1,0,0,1,.26,0h.19l.4.06L67.33.06a1,1,0,0,0-.28,0h-.58l-.28.06a.32.32,0,0,0-.14,0,.25.25,0,0,0-.09,0,2.36,2.36,0,0,0-.64.27L10.41,32.1a3.09,3.09,0,0,0-.56.41l-.12.09a5.8,5.8,0,0,0-.47.52l-.09.11c-.05.07-.12.14-.18.23s-.08.17-.14.25A1.28,1.28,0,0,0,8.7,34a.83.83,0,0,0-.07.13,3.16,3.16,0,0,0-.22.5s0,0,0,.06h0a2.4,2.4,0,0,0-.19.55.81.81,0,0,0,0,.19,1.36,1.36,0,0,0,0,.17.59.59,0,0,0,0,.22,4.33,4.33,0,0,0-.08.5.19.19,0,0,1,0,.08v0c0,.25,0,.49,0,.74l0,0a4.72,4.72,0,0,0,.11.92L18,81.6l1.32.77L9.63,38.49a4.64,4.64,0,0,1-.12-.93c0-.27,0-.54,0-.81A.11.11,0,0,0,9.54,36.67Z"/><path class="cls-13" d="M66.88.78c1.78-1,3.66,0,4.18,2.25L80,43.92,19,80.92,9.63,38.49a5.8,5.8,0,0,1,2.35-6Z"/><polygon class="cls-14" points="11.77 39.69 69.83 6.56 77.53 41.68 20.24 76.82 11.77 39.69"/><path class="cls-12" d="M100.61,60.39l-55.36,32L26.78,81.61l55.35-32ZM58.4,83.11,84.18,68.23,81.7,66.79,55.92,81.66l2.48,1.45ZM74.79,62.77,72.5,64.09,75,65.53l2.29-1.32-2.49-1.44Zm8-1.76,2.29-1.31-2.49-1.46-2.29,1.33L82.82,61ZM51.5,79.1l2.28-1.33-2.49-1.44L49,77.65,51.5,79.1Zm7.62-7.29-2.28,1.31,2.49,1.46,2.28-1.33-2.49-1.44ZM43.68,83.62,46,82.3l-2.49-1.45-2.28,1.32,2.5,1.45ZM69.44,68.74,67,67.29l-2.28,1.32,2.5,1.45,2.27-1.32Zm.13-3-2.29,1.33,2.48,1.43,2.29-1.32-2.48-1.44ZM38.45,86.63l2.29-1.32-2.51-1.45L36,85.19l2.5,1.44Zm47-27.12,2.27-1.33-2.49-1.45-2.28,1.33,2.5,1.45ZM61.72,70.3l-2.27,1.32,2.48,1.45,2.28-1.33L61.72,70.3ZM77.6,64l2.28-1.31-2.49-1.45-2.28,1.32L77.6,64ZM53.9,74.82l-2.28,1.32,2.49,1.45,2.28-1.32L53.9,74.82ZM46.28,82.1l2.28-1.31-2.5-1.44-2.27,1.31,2.49,1.44Zm4.29,5.53,2.28-1.31-2.47-1.45-2.29,1.32,2.48,1.44ZM86.27,63l2.29-1.31-2.48-1.45-2.29,1.33L86.27,63ZM62.58,73.82,60.3,75.14l2.48,1.43,2.28-1.3-2.48-1.45Zm8.76-13.06-2.29,1.32,2.48,1.44,2.28-1.33-2.47-1.43Zm8-1.77,2.28-1.32-2.47-1.43-2.29,1.31L79.36,59ZM68.13,70.61l2.48,1.45,2.3-1.32L70.42,69.3l-2.29,1.31ZM66,66.72,63.5,65.28,61.21,66.6,63.7,68,66,66.72Zm12.27-2L76,66.09l2.48,1.45,2.29-1.33-2.48-1.44ZM89.72,65,92,63.71l-2.49-1.44-2.28,1.31L89.72,65ZM55.66,69.8l-2.28,1.33,2.49,1.43,2.28-1.32L55.66,69.8ZM47.12,85.62l2.28-1.31-2.48-1.45-2.28,1.33,2.48,1.43ZM55,81.1l2.29-1.31-2.49-1.45-2.29,1.32L55,81.1Zm-6.91-4,2.28-1.31-2.49-1.45-2.27,1.32L48,77.08ZM40.21,81.6l2.27-1.32L40,78.84l-2.29,1.33,2.49,1.43Zm25.9-17.83-2.29,1.32,2.49,1.44,2.28-1.31-2.48-1.45ZM49.73,84.12,52,82.79l-2.48-1.43-2.29,1.31,2.49,1.45Zm-6.91-4,2.29-1.33-2.49-1.45-2.29,1.33,2.49,1.45Zm22.37-7.79-2.3,1.31,2.5,1.45,2.28-1.33-2.48-1.43Zm9-10.31,2.29-1.31-2.49-1.44-2.28,1.31L74.14,62ZM58.28,68.29,56,69.62l2.47,1.44,2.29-1.33-2.48-1.44ZM81.05,66l2.29-1.32-2.48-1.44-2.29,1.32L81.05,66Zm-8,1.76-2.29,1.32,2.48,1.44,2.29-1.32L73,67.79ZM84.5,68l2.29-1.32-2.47-1.44L82,66.6,84.5,68Zm-27.14,8.8-2.29,1.31,2.49,1.44,2.28-1.32-2.48-1.43Zm-6.92-4-2.28,1.32,2.48,1.45,2.3-1.32-2.5-1.45Zm-5.1,17.84,2.29-1.33-2.47-1.44-2.3,1.32,2.48,1.45Zm47-27.13,2.29-1.31-2.48-1.45-2.29,1.32,2.48,1.44Zm-3.44-2,2.28-1.31-2.49-1.46L86.4,60.07l2.49,1.44Zm-47,27.12,2.28-1.31-2.49-1.44-2.27,1.31,2.48,1.44ZM82,57.49l2.28-1.31-2.48-1.45-2.28,1.32L82,57.49ZM53.18,86.13l2.3-1.33L53,83.36,50.7,84.68l2.48,1.45ZM35,84.62l2.29-1.31-2.48-1.45L32.5,83.18,35,84.62ZM88.05,58l2.27-1.32-2.48-1.44-2.29,1.32L88.05,58ZM56.51,73.32l-2.27,1.31,2.49,1.44L59,74.76l-2.48-1.44Zm-7.62,7.27,2.28-1.31-2.5-1.45-2.28,1.32,2.5,1.44ZM80.22,62.51l2.27-1.31L80,59.75l-2.28,1.32,2.5,1.44Zm-8,1.77-2.27,1.3L72.39,67l2.27-1.32-2.49-1.44ZM41.07,85.11l2.27-1.31-2.49-1.44-2.27,1.31,2.49,1.44ZM66.83,70.25l-2.5-1.46-2.26,1.32,2.48,1.44,2.28-1.3ZM37.61,83.11l2.26-1.32L37.4,80.35l-2.28,1.31,2.49,1.45ZM91.49,60l2.28-1.32-2.48-1.43L89,58.56,91.49,60Zm-47,27.13,2.29-1.31-2.48-1.45L42,85.69l2.48,1.44ZM75.64,66.28l-2.29,1.33,2.48,1.44,2.29-1.31-2.48-1.46Zm1.11-5.78L79,59.19l-2.5-1.44-2.26,1.31,2.47,1.44Zm-8,1.77-2.27,1.31L68.91,65l2.29-1.32-2.49-1.44ZM55.79,84.62l2.29-1.31L55.6,81.86l-2.28,1.32,2.47,1.44ZM95,62l2.28-1.31-2.49-1.44-2.26,1.31L95,62ZM52.33,82.61l2.29-1.32-2.48-1.44-2.28,1.32,2.47,1.44ZM83.66,64.53,86,63.21l-2.49-1.44-2.28,1.3,2.48,1.46ZM45.43,78.59l2.28-1.32-2.49-1.44L43,77.15l2.48,1.44ZM48,89.14l2.28-1.32-2.47-1.45-2.28,1.32L48,89.14Zm5.09-17.83-2.27,1.32,2.48,1.43,2.28-1.32-2.49-1.43Zm34.08-4.79,2.27-1.3-2.49-1.44-2.27,1.31,2.49,1.43ZM63.37,68.23l-2.49-1.44L58.61,68.1l2.48,1.45,2.28-1.32Zm2.15,3.89L68,73.57l2.27-1.33L67.8,70.81l-2.28,1.31ZM84.58,56l2.29-1.33-2.49-1.43-2.27,1.31L84.58,56ZM60,75.32l-2.28,1.32,2.48,1.45,2.27-1.32L60,75.32Zm2.35-12.74L60,63.91l1.73,1,2.28-1.32-1.73-1ZM45.8,72.12l-2.3,1.31,1.73,1,2.28-1.32-1.71-1ZM78,53.54,75.7,54.85l1.72,1,2.3-1.33-1.75-1Zm-9.55,5.52-2.29,1.33,1.74,1,2.27-1.31-1.72-1Zm3.48-2-2.29,1.32,1.73,1,2.28-1.33-1.72-1ZM36.22,77.65,34,79l1.71,1L38,78.65l-1.73-1Zm-3.47,2L30.46,81l1.72,1,2.28-1.33-1.71-1Zm9-3.21L44,75.14l-1.73-1L40,75.45l1.72,1Zm39.16-22.6,2.27-1.32-1.73-1-2.27,1.32,1.73,1ZM58.84,64.59,56.57,65.9l1.71,1,2.28-1.31-1.72-1Z"/><polygon class="cls-13" points="63.82 65.09 66.31 66.53 68.59 65.22 66.11 63.78 63.82 65.09"/><polygon class="cls-13" points="82.11 54.54 84.58 55.99 86.87 54.66 84.38 53.23 82.11 54.54"/><polygon class="cls-13" points="71.66 60.57 74.14 62.01 76.43 60.7 73.94 59.26 71.66 60.57"/><polygon class="cls-13" points="78.57 64.59 81.05 66.03 83.34 64.71 80.86 63.27 78.57 64.59"/><polygon class="cls-13" points="79.18 52.85 80.91 53.85 83.18 52.53 81.45 51.53 79.18 52.85"/><polygon class="cls-13" points="75.7 54.85 77.42 55.87 79.72 54.54 77.97 53.54 75.7 54.85"/><polygon class="cls-13" points="79.49 56.05 81.97 57.49 84.25 56.18 81.77 54.73 79.49 56.05"/><polygon class="cls-13" points="85.55 56.55 88.05 57.99 90.32 56.67 87.83 55.23 85.55 56.55"/><polygon class="cls-13" points="76.88 57.55 79.36 58.99 81.64 57.67 79.17 56.23 76.88 57.55"/><polygon class="cls-13" points="69.61 58.38 71.34 59.39 73.62 58.06 71.9 57.06 69.61 58.38"/><polygon class="cls-13" points="82.94 58.06 85.44 59.51 87.71 58.18 85.22 56.73 82.94 58.06"/><polygon class="cls-13" points="89.01 58.56 91.49 60 93.77 58.68 91.29 57.25 89.01 58.56"/><polygon class="cls-13" points="74.28 59.06 76.75 60.5 79.04 59.19 76.54 57.75 74.28 59.06"/><polygon class="cls-13" points="80.33 59.57 82.82 61.01 85.11 59.7 82.62 58.24 80.33 59.57"/><polygon class="cls-13" points="66.13 60.39 67.87 61.38 70.14 60.07 68.42 59.06 66.13 60.39"/><polygon class="cls-13" points="86.4 60.07 88.89 61.51 91.17 60.2 88.68 58.74 86.4 60.07"/><polygon class="cls-13" points="92.48 60.57 94.95 62.01 97.23 60.7 94.74 59.26 92.48 60.57"/><polygon class="cls-13" points="77.72 61.07 80.22 62.51 82.49 61.2 80 59.75 77.72 61.07"/><polygon class="cls-13" points="83.79 61.58 86.28 63.01 88.56 61.7 86.08 60.25 83.79 61.58"/><polygon class="cls-13" points="69.05 62.08 71.53 63.52 73.81 62.19 71.34 60.76 69.05 62.08"/><polygon class="cls-13" points="75.11 62.58 77.61 64.02 79.88 62.7 77.39 61.26 75.11 62.58"/><polygon class="cls-13" points="81.18 63.07 83.66 64.53 85.95 63.21 83.46 61.77 81.18 63.07"/><polygon class="cls-13" points="60.05 63.91 61.77 64.9 64.05 63.58 62.32 62.58 60.05 63.91"/><polygon class="cls-13" points="66.44 63.58 68.91 65.03 71.2 63.71 68.71 62.27 66.44 63.58"/><polygon class="cls-13" points="72.5 64.09 74.99 65.53 77.28 64.21 74.79 62.77 72.5 64.09"/><polygon class="cls-13" points="84.64 65.09 87.13 66.52 89.4 65.22 86.92 63.78 84.64 65.09"/><polygon class="cls-13" points="56.57 65.9 58.28 66.91 60.56 65.6 58.84 64.59 56.57 65.9"/><polygon class="cls-13" points="69.89 65.58 72.39 67.05 74.66 65.72 72.17 64.28 69.89 65.58"/><polygon class="cls-13" points="75.96 66.09 78.44 67.53 80.73 66.21 78.25 64.77 75.96 66.09"/><polygon class="cls-13" points="61.21 66.6 63.7 68.05 65.98 66.72 63.5 65.28 61.21 66.6"/><polygon class="cls-13" points="82.02 66.6 84.5 68.05 86.79 66.72 84.32 65.28 82.02 66.6"/><polygon class="cls-13" points="73.35 67.61 75.83 69.05 78.12 67.73 75.64 66.28 73.35 67.61"/><polygon class="cls-13" points="58.61 68.1 61.09 69.55 63.37 68.23 60.88 66.78 58.61 68.1"/><polygon class="cls-13" points="64.67 68.61 67.17 70.06 69.44 68.74 66.95 67.28 64.67 68.61"/><polygon class="cls-13" points="70.74 69.11 73.22 70.55 75.51 69.23 73.03 67.79 70.74 69.11"/><polygon class="cls-13" points="55.99 69.62 58.47 71.06 60.76 69.73 58.28 68.29 55.99 69.62"/><polygon class="cls-13" points="62.07 70.11 64.55 71.55 66.83 70.25 64.33 68.79 62.07 70.11"/><polygon class="cls-13" points="68.13 70.61 70.61 72.06 72.91 70.74 70.42 69.3 68.13 70.61"/><polygon class="cls-13" points="53.38 71.13 55.87 72.56 58.15 71.24 55.66 69.8 53.38 71.13"/><polygon class="cls-13" points="59.45 71.62 61.93 73.07 64.22 71.74 61.72 70.31 59.45 71.62"/><polygon class="cls-13" points="65.52 72.12 68 73.57 70.27 72.24 67.8 70.81 65.52 72.12"/><polygon class="cls-13" points="50.78 72.63 53.26 74.06 55.54 72.74 53.05 71.31 50.78 72.63"/><polygon class="cls-13" points="43.5 73.43 45.23 74.44 47.51 73.12 45.8 72.12 43.5 73.43"/><polygon class="cls-13" points="56.84 73.12 59.33 74.58 61.61 73.25 59.12 71.81 56.84 73.12"/><polygon class="cls-13" points="62.89 73.64 65.39 75.08 67.67 73.75 65.19 72.32 62.89 73.64"/><polygon class="cls-13" points="48.16 74.13 50.64 75.58 52.94 74.26 50.44 72.81 48.16 74.13"/><polygon class="cls-13" points="54.24 74.63 56.73 76.07 58.99 74.76 56.51 73.32 54.24 74.63"/><polygon class="cls-13" points="40.03 75.45 41.76 76.45 44.03 75.14 42.3 74.13 40.03 75.45"/><polygon class="cls-13" points="60.3 75.14 62.78 76.57 65.06 75.27 62.58 73.82 60.3 75.14"/><polygon class="cls-13" points="45.56 75.64 48.04 77.08 50.32 75.77 47.83 74.32 45.56 75.64"/><polygon class="cls-13" points="51.62 76.14 54.11 77.59 56.39 76.27 53.9 74.82 51.62 76.14"/><polygon class="cls-13" points="57.69 76.64 60.17 78.09 62.45 76.77 59.97 75.32 57.69 76.64"/><polygon class="cls-13" points="42.95 77.15 45.43 78.59 47.71 77.27 45.22 75.83 42.95 77.15"/><polygon class="cls-13" points="49.01 77.65 51.5 79.1 53.78 77.77 51.29 76.33 49.01 77.65"/><polygon class="cls-13" points="55.07 78.15 57.56 79.59 59.84 78.27 57.36 76.84 55.07 78.15"/><polygon class="cls-13" points="33.95 78.97 35.66 79.97 37.95 78.65 36.22 77.65 33.95 78.97"/><polygon class="cls-13" points="40.33 78.66 42.82 80.11 45.11 78.78 42.62 77.33 40.33 78.66"/><polygon class="cls-13" points="46.39 79.15 48.89 80.59 51.17 79.28 48.67 77.83 46.39 79.15"/><polygon class="cls-13" points="37.72 80.17 40.21 81.6 42.48 80.28 40.01 78.84 37.72 80.17"/><polygon class="cls-13" points="30.46 80.97 32.18 81.99 34.45 80.66 32.75 79.66 30.46 80.97"/><polygon class="cls-13" points="43.79 80.66 46.28 82.1 48.56 80.79 46.06 79.35 43.79 80.66"/><polygon class="cls-13" points="49.86 81.17 52.33 82.61 54.63 81.29 52.14 79.85 49.86 81.17"/><polygon class="cls-13" points="35.12 81.66 37.61 83.11 39.87 81.79 37.4 80.35 35.12 81.66"/><polygon class="cls-13" points="55.92 81.66 58.4 83.11 84.18 68.23 81.7 66.78 55.92 81.66"/><polygon class="cls-13" points="41.18 82.17 43.68 83.62 45.95 82.3 43.46 80.85 41.18 82.17"/><polygon class="cls-13" points="47.24 82.67 49.73 84.12 52.01 82.79 49.53 81.36 47.24 82.67"/><polygon class="cls-13" points="32.51 83.18 34.98 84.61 37.27 83.31 34.79 81.86 32.51 83.18"/><polygon class="cls-13" points="53.32 83.18 55.79 84.61 58.08 83.31 55.6 81.86 53.32 83.18"/><polygon class="cls-13" points="38.58 83.67 41.07 85.11 43.34 83.8 40.85 82.36 38.58 83.67"/><polygon class="cls-13" points="44.64 84.19 47.12 85.62 49.4 84.31 46.92 82.86 44.64 84.19"/><polygon class="cls-13" points="50.7 84.68 53.18 86.13 55.48 84.8 52.99 83.36 50.7 84.68"/><polygon class="cls-13" points="35.95 85.19 38.45 86.63 40.74 85.31 38.23 83.86 35.95 85.19"/><polygon class="cls-13" points="42.02 85.69 44.51 87.13 46.79 85.82 44.31 84.37 42.02 85.69"/><polygon class="cls-13" points="48.09 86.19 50.57 87.63 52.85 86.31 50.38 84.87 48.09 86.19"/><polygon class="cls-13" points="39.42 87.19 41.9 88.63 44.18 87.32 41.7 85.88 39.42 87.19"/><polygon class="cls-13" points="45.49 87.69 47.96 89.14 50.24 87.82 47.77 86.37 45.49 87.69"/><polygon class="cls-13" points="42.87 89.2 45.34 90.65 47.63 89.32 45.16 87.88 42.87 89.2"/><polygon class="cls-13" points="67.28 67.11 69.76 68.55 72.05 67.22 69.57 65.78 67.28 67.11"/><polygon class="cls-13" points="52.46 79.66 54.95 81.1 57.24 79.78 54.75 78.34 52.46 79.66"/><polygon class="cls-13" points="87.24 63.58 89.72 65.03 92.01 63.71 89.52 62.27 87.24 63.58"/><polygon class="cls-13" points="89.86 62.08 92.33 63.52 94.62 62.2 92.14 60.76 89.86 62.08"/><path class="cls-15" d="M71,78.79c-.79.46-.81,1.21,0,1.67l5.2,3a3.2,3.2,0,0,0,2.89,0l7.06-4.08a.89.89,0,0,0,0-1.67L81,74.7a3.33,3.33,0,0,0-2.89,0Z"/><path class="cls-12" d="M71,79c-.79.46-.81,1.21,0,1.66l5.2,3a3.14,3.14,0,0,0,2.89,0l7.06-4.08a.89.89,0,0,0,0-1.68L81,75a3.2,3.2,0,0,0-2.89,0Z"/><path class="cls-16" d="M29.4,80.41,29.3,45.9,28,45.13l.1,34.51a.89.89,0,0,0,.38.82l1.32.77A.89.89,0,0,1,29.4,80.41Z"/><polygon class="cls-16" points="29.3 45.9 27.97 45.13 27.96 40.46 29.29 41.23 29.3 45.9"/><path class="cls-17" d="M79.74,16.78,29.3,45.9l.1,34.51c0,.81.58,1.14,1.28.73L78.56,53.49a2.79,2.79,0,0,0,1.28-2.2Z"/><path class="cls-18" d="M78.45,11.38c.7-.4,1.28-.08,1.28.73v4.67L29.3,45.9V41.23A2.82,2.82,0,0,1,30.56,39Z"/><path class="cls-16" d="M78.73,11.26l.2,0h.24l.19.07h0L78,10.52l-.06,0-.07,0h-.33l-.11,0,0,0-.05,0h0l-.18.09L29.23,38.26a1.19,1.19,0,0,0-.23.16l-.08.07a1.09,1.09,0,0,0-.11.1l0,0,0,0,0,.05-.1.12,0,0a0,0,0,0,1,0,0l0,0-.08.11s0,.07-.06.11h0l0,.09-.06.11a1,1,0,0,1,0,.1h0s0,.07,0,.11l-.05.12s0,0,0,.06a0,0,0,0,0,0,0s0,0,0,0L28,40s0,.06,0,.09,0,0,0,0v0a2.29,2.29,0,0,0,0,.25l1.33.77c0-.09,0-.19,0-.29v0a1.28,1.28,0,0,1,.07-.28v0c0-.1.07-.2.11-.3h0a1.59,1.59,0,0,1,.15-.29h0a1.81,1.81,0,0,1,.18-.27l0,0,.18-.22,0-.05.17-.15.07-.06a1.77,1.77,0,0,1,.24-.17L78.45,11.38a.77.77,0,0,1,.23-.1Z"/><path class="cls-17" d="M32.46,42.3a2.57,2.57,0,0,0,1.17-2c0-.75-.53-1-1.18-.67a2.57,2.57,0,0,0-1.16,2c0,.75.53,1,1.17.67Z"/><path class="cls-17" d="M36,40.25a2.55,2.55,0,0,0,1.17-2c0-.74-.53-1-1.18-.66a2.57,2.57,0,0,0-1.16,2c0,.74.53,1.05,1.17.67Z"/><path class="cls-17" d="M39.45,38.25a2.57,2.57,0,0,0,1.17-2c0-.74-.53-1-1.18-.66a2.57,2.57,0,0,0-1.16,2c0,.74.53,1,1.17.67Z"/><polygon class="cls-10" points="75.23 46.13 22.58 76.73 58.43 97.43 111.08 66.83 75.23 46.13"/><polygon class="cls-9" points="75.56 39.37 20.83 71.17 58.1 92.69 112.82 60.88 75.56 39.37"/><polygon class="cls-8" points="75.89 32.6 19.09 65.61 57.77 87.94 114.57 54.93 75.89 32.6"/><polygon class="cls-7" points="76.23 25.84 17.34 60.05 57.43 83.2 116.31 48.98 76.23 25.84"/><polygon class="cls-6" points="76.56 19.07 15.6 54.49 57.1 78.45 118.06 43.03 76.56 19.07"/><polygon class="cls-5" points="76.89 12.3 13.86 48.93 56.77 73.71 119.81 37.08 76.89 12.3"/><polygon class="cls-4" points="77.22 5.54 12.11 43.37 56.44 68.97 121.55 31.13 77.22 5.54"/><polygon class="cls-19" points="76.6 22.98 76.61 26.16 31.88 51.98 31.87 48.8 76.6 22.98"/><polygon class="cls-19" points="76.6 30.09 76.61 33.27 31.88 59.1 31.87 55.91 76.6 30.09"/><polygon class="cls-19" points="76.6 39.57 76.61 42.76 31.88 68.58 31.87 65.4 76.6 39.57"/><polygon class="cls-19" points="76.6 46.69 76.61 49.87 31.88 75.69 31.87 72.51 76.6 46.69"/><g class="cls-11"><path d="M108,93.93c5.24,3,5.27,7.94.06,11s-13.69,3-18.94,0-5.28-8-.06-11S102.73,90.9,108,93.93Z"/></g><path class="cls-20" d="M94.72,44.86a12.68,12.68,0,0,0-.7-2.2,3.93,3.93,0,0,0-2.68-1.83c-.77,0-.24.7.57,1.5a1.61,1.61,0,0,1,.73,1.42,5.81,5.81,0,0,0,.49,2C93.33,46.16,94.72,44.86,94.72,44.86Z"/><path class="cls-21" d="M93.08,45.66a6.53,6.53,0,0,0-.83-1.8c-.51-.56,0-1.17-.34-1.53-.63-.62-1.08-1.23-.89-1.44.44.51,1.32.22,2,1.83a11.08,11.08,0,0,1,.56,2.85C93.25,45.74,93.15,45.83,93.08,45.66Z"/><path class="cls-22" d="M107.68,51.85s.14,2.4-3,2-8.81-2-9.68-3.32A32.05,32.05,0,0,1,93,45.33s1.52.3,1.92-1l3,4.53S107.61,50.17,107.68,51.85Z"/><path class="cls-20" d="M93.65,45.51S92.11,44,91.72,43.45s-.46-1.07-.29-1,1.41,1.53,1.81,1C93.45,43.06,93.47,45.24,93.65,45.51Z"/><path class="cls-23" d="M99.35,99.17s1,1.65-.41,2-1-.5-4.11.29-2.75-1-2.68-1.33,1.43-.86,2.11-1,3.4-.8,3.4-.8l1.66.3Z"/><path class="cls-23" d="M101.23,94.59s-1.19.18-.9.87,1.66,1.73,1.84,2.17a5.32,5.32,0,0,0,1.66,1.84c.65.11,1.3.07,1.19-1.7S102.82,94.52,101.23,94.59Z"/><path class="cls-20" d="M106.36,64.35s2.31,3.44.81,9.23c0,0-2.6,8.75-2.13,10.47s2.26,3.85,1,9.39a39.46,39.46,0,0,0-1,4.17,1,1,0,0,1-1.85,0c-.49-2.21-.12-5.51-.46-7.14-1.1-5.37-1.67-8.17-1.32-11.81s-.07-11.92-.07-11.92S105.43,67.14,106.36,64.35Z"/><path class="cls-20" d="M103.77,66.43s2,3.64,0,9.27c0,0-3.4,8.47-3.1,10.23s1.74,2.89.12,9.44a29.25,29.25,0,0,0-1.42,4.06c-.16,1.44-1.62,1.62-1.77.56-.31-2.15.32-6.26.14-7.92-.59-5.44-.9-8.28-.21-11.88s1-11.88,1-11.88S102.58,69.13,103.77,66.43Z"/><path class="cls-24" d="M98,54.46s6.49-6.37,8.7-4.52c0,0,2,1.51,1.16,6.72s-2.09,6.15-.82,9.28c0,0-2.55,5.1-9,2.78,0,0,1-5.17.23-6.7-1.91-3.82-2-5.77-.49-7.26Z"/><path class="cls-25" d="M107.06,65.94s3.46,3.86,1.47,10.37c-1.61,5.28-.85,8.64-.85,8.64s-5.85,4.86-11.41,2.3A54.68,54.68,0,0,1,96.48,77c.61-6.73,1.54-8.32,1.54-8.32A7.8,7.8,0,0,0,107.06,65.94Z"/><path class="cls-23" d="M97.08,98.8a1.32,1.32,0,0,0,2.28.39s.23,1.91-1.14,1.66S96.31,99.19,97.08,98.8Z"/><path class="cls-20" d="M86.21,59.27s-1.56,0-2.11-.7a7.51,7.51,0,0,1-1.49-2c-.17-.61,0-.84.44-.71a8.54,8.54,0,0,1,2.49,1.55,1.89,1.89,0,0,0,1.07.61C86.84,58.14,87,58.93,86.21,59.27Z"/><path class="cls-20" d="M86.61,58.05a1.89,1.89,0,0,1-1.07-.61,8.54,8.54,0,0,0-2.49-1.55l-.19,0,1.66,1.68a4.79,4.79,0,0,0,2.27,1.07A.54.54,0,0,0,86.61,58.05Z"/><path class="cls-22" d="M99.9,55.4c-.44-.61-1.57-1.22-3,.16s-5.43,5.25-5.43,5.25-4.6-2.77-5.17-3a1.07,1.07,0,0,1-.49,1.47s3.79,4.63,5.57,4.47S101.7,57.9,99.9,55.4Z"/><path class="cls-20" d="M86.42,58.16s-.91-1.41-1.25-1.79-.73-.52-.74-.39.93,1.32.43,1.53C84.59,57.62,86.24,58,86.42,58.16Z"/><path class="cls-20" d="M100,50.55l-.25,3a3.77,3.77,0,0,0,4.66-.86l-.32-3.2A6.83,6.83,0,0,1,100,50.55Z"/><path class="cls-26" d="M101.07,41.56a4.19,4.19,0,0,0-3.22,1.72c-1.4,1.65-1.5,3.42-.28,5.77,1.3,2.51-.74,4.3-1.3,4.8s7.31,2,10.16-2.24C106.43,51.61,107.78,40.94,101.07,41.56Z"/><path class="cls-23" d="M96.31,98.8s.77-.25.9-1.64a3.55,3.55,0,0,0,2.72.28,11,11,0,0,1-.33,3.31S95.9,100.2,96.31,98.8Z"/><path class="cls-23" d="M103,96.2s1.11,1.45,2.13.85c0,0,0,1.25-.06,1.46a1.3,1.3,0,0,1-1.58.08A3.32,3.32,0,0,1,103,96.2Z"/><g class="cls-27"><path class="cls-28" d="M82.48,50.77c0,7.2-11.38,24-18.52,24s-12.63-2.19-12.63-9.39S62.41,37.73,69.55,37.73A13,13,0,0,1,82.48,50.77Z"/></g><polygon class="cls-29" points="87.77 45.94 85.24 44.47 85.16 36.32 87.69 37.79 87.77 45.94"/><path class="cls-30" d="M107.09,26.45l.24-.1.36-.12.17-.05.2,0,.22,0h.14l.25,0h.1l.32,0h0a1.57,1.57,0,0,1,.29.08l.06,0a1.43,1.43,0,0,1,.28.13l-2.53-1.47h0l-.19-.1-.06,0-.07,0-.08,0-.21-.05h0a1,1,0,0,0-.25,0H106l-.13,0h-.2l-.16,0-.2,0,0,0a.35.35,0,0,0-.11,0l-.36.13-.09,0-.15.07-.13.05a4.36,4.36,0,0,0-.42.23L85.16,36.32l2.53,1.47,18.85-11.06.43-.22Z"/><path class="cls-31" d="M106.54,26.73c2.31-1.33,4.16-.59,4.19,1.65s-1.82,5.16-4.11,6.5L87.77,45.94l-.08-8.15Z"/><g class="cls-1"><polygon class="cls-32" points="83.06 47.51 80.54 46.04 80.47 40.51 83 41.97 83.06 47.51"/><polygon class="cls-33" points="83 41.97 80.47 40.51 85.18 37.73 87.71 39.2 83 41.97"/><polygon class="cls-34" points="87.71 39.2 87.78 44.74 83.06 47.51 83 41.97 87.71 39.2"/></g><path class="cls-35" d="M80.1,51.81l.09-.55a2,2,0,0,1,0-.24.13.13,0,0,1,0-.06c0-.39.08-.77.11-1.15,0-.07,0-.14,0-.22,0-.39,0-.78,0-1.16,0-4.17-1.48-7.11-3.86-8.49L74,38.47c2.38,1.39,3.85,4.32,3.86,8.49,0,.38,0,.77,0,1.16,0,.08,0,.15,0,.22,0,.38-.06.77-.11,1.15,0,.1,0,.2,0,.3s0,.37-.08.56,0,.22-.06.33-.07.37-.11.56l-.06.26c-.09.44-.2.88-.32,1.33,0,.08,0,.15-.07.22-.11.39-.23.78-.35,1.17,0,0,0,0,0,.05-.12.38-.26.75-.4,1.12,0,.09-.07.17-.1.26l-.39,1a.54.54,0,0,0,0,.11c-.15.35-.31.69-.47,1,0,.08-.09.17-.12.25-.14.27-.28.54-.41.81l-.13.24c-.17.33-.36.66-.55,1l-.1.17c-.17.29-.35.57-.52.85l-.16.25q-.31.49-.66,1l-.11.15c-.23.33-.47.66-.72,1l-.12.15q-.47.6-1,1.17l-.14.17-.6.66-.06.06c-.22.24-.45.47-.67.69l-.15.14c-.29.29-.59.58-.9.85l-.08.07c-.32.28-.64.55-1,.8l-.19.15c-.32.25-.64.48-1,.71a1.88,1.88,0,0,0-.18.12c-.34.23-.69.44-1,.65s-.56.31-.84.45l-.24.12-.63.28-.23.1-.57.22-.16.06c-.23.08-.47.15-.71.21l-.4.11a1,1,0,0,0-.2,0l-.6.11-.89.09H58.13l-.59-.07-.19,0c-.22-.05-.44-.09-.66-.15l0,0a5.84,5.84,0,0,1-.59-.2l-.18-.08-.47-.23-.17-.09,0,0,0,0,2.53,1.47.07,0,.09,0a4.3,4.3,0,0,0,.48.24l.09,0,.08,0q.3.12.6.21h0l.66.16H60l.1,0,.6.07h1.07c.29,0,.58,0,.89-.08h0l.6-.12.17,0,.4-.1h0c.24-.06.47-.13.71-.21l.17-.07.56-.21.08,0,.15-.07.62-.28.25-.13c.28-.13.55-.28.83-.44s.7-.43,1-.66l.18-.12c.32-.22.65-.46,1-.7l.19-.15c.32-.26.65-.52,1-.8l.09-.08.9-.83a.76.76,0,0,1,.09-.09l.06-.06.67-.69.06-.06.59-.66a.23.23,0,0,1,.07-.07l.07-.1c.34-.38.66-.77,1-1.18l0,0,.07-.09c.25-.33.5-.67.74-1l.07-.09,0,0c.23-.33.46-.67.68-1l.06-.09.08-.14.53-.85s0-.09.07-.13l0,0c.19-.32.37-.65.55-1l0-.07c0-.06.06-.11.08-.16.14-.27.28-.54.41-.81a.8.8,0,0,0,.08-.16l0-.09c.16-.34.32-.69.46-1l0,0,0-.09q.21-.48.39-1l.06-.14,0-.12c.14-.38.27-.75.4-1.12h0l0,0c.12-.39.24-.77.35-1.16a.78.78,0,0,1,.05-.14s0-.05,0-.08c.12-.44.24-.89.33-1.34l0-.1,0-.16c0-.18.07-.37.1-.55Z"/><path class="cls-36" d="M68.48,35.82l.81-.37.29-.12c.25-.11.51-.2.76-.29l.17-.07.92-.28.52-.13.26-.06c.26-.06.51-.1.77-.14h0c.23,0,.47-.07.7-.09l.23,0,.49,0h1.08c.26,0,.51,0,.77.09l.23,0c.29.06.57.12.85.2h0c.26.08.52.17.77.27l.22.09.62.31.21.11L76.66,33.9l-.09-.06-.11-.05-.63-.31-.12,0-.09,0c-.26-.1-.51-.19-.77-.27h0c-.27-.08-.56-.14-.84-.2l-.1,0h-.14a6.48,6.48,0,0,0-.77-.09l-.12,0H71.72l-.32,0h-.24l-.66.08-.08,0c-.25,0-.49.08-.74.13l-.25.06c-.16,0-.32.07-.48.12h0c-.3.09-.61.18-.91.29l-.18.06-.76.29-.1,0-.18.08-.81.37-.31.15c-.36.18-.72.38-1.08.58l-.81.5-.26.17-.55.36-.3.21c-.17.12-.34.24-.5.37a3.55,3.55,0,0,0-.31.23,6.12,6.12,0,0,0-.5.39l-.28.22-.57.48-.2.17-.75.69-.13.11-.52.5-.07.08c-.29.29-.58.58-.86.88a.27.27,0,0,0-.07.08c-.27.28-.52.56-.78.86l-.07.08-.09.11q-.64.74-1.26,1.53l0,0-.09.11-1,1.29-.09.13,0,.06c-.3.42-.58.85-.86,1.28l-.08.12c0,.07-.08.14-.12.2-.22.35-.44.7-.65,1.06a1.74,1.74,0,0,0-.11.18l0,.07c-.24.42-.47.83-.7,1.26l-.06.1-.11.23c-.18.33-.34.66-.51,1a2.4,2.4,0,0,1-.11.23l-.07.14c-.2.43-.4.86-.59,1.29a.05.05,0,0,1,0,0l-.06.15c-.16.39-.32.78-.47,1.17l-.09.21-.06.17c-.18.47-.35.93-.5,1.4l0,0a.19.19,0,0,1,0,.1c-.15.48-.3,1-.44,1.44a.7.7,0,0,1-.06.19,1,1,0,0,1,0,.18c0,.14-.07.28-.11.41l-.15.62c0,.14-.07.28-.1.42s0,.22-.07.32,0,.15,0,.23l-.12.65c0,.16-.06.32-.08.47s-.08.46-.11.69,0,.21,0,.32a.59.59,0,0,0,0,.13c0,.11,0,.22,0,.32l-.06.65,0,.34c0,.22,0,.45,0,.67s0,.19,0,.28c0,.31,0,.63,0,.94,0,5.35,1.9,9.12,5,10.9l2.53,1.46c-3-1.77-4.94-5.54-5-10.9,0-.31,0-.62,0-.93,0-.1,0-.19,0-.28s0-.45.05-.67,0-.23,0-.34.05-.43.07-.65l0-.32c0-.15,0-.3.07-.45s.06-.46.1-.69.06-.31.08-.47.09-.44.13-.66.07-.36.12-.54.06-.28.1-.43.09-.4.15-.61.07-.27.11-.41.07-.25.1-.37c.14-.48.28-1,.44-1.45a.56.56,0,0,0,0-.12c.16-.47.33-.93.5-1.4l.15-.38c.16-.4.31-.79.49-1.18a1.34,1.34,0,0,1,.07-.18c.19-.43.39-.87.59-1.3l.17-.35c.17-.34.34-.68.52-1a3.24,3.24,0,0,1,.17-.32c.22-.42.45-.84.7-1.26l.14-.25L56,47.8l.21-.32c.28-.44.56-.86.85-1.28l.14-.2c.31-.43.63-.86,1-1.28l.12-.16q.62-.78,1.26-1.53l.16-.18c.25-.3.52-.59.78-.87l.06-.07.86-.88.59-.58.13-.12c.25-.23.5-.46.76-.68l.2-.17.56-.48.29-.22c.16-.14.33-.27.5-.4l.3-.23.5-.36.3-.21.55-.36.26-.17c.27-.17.54-.34.82-.5s.72-.4,1.07-.58Z"/><path class="cls-37" d="M67.1,36.55c9.38-5.42,17-1.07,17,9.72S76.6,70.18,67.21,75.6s-17,1.07-17-9.72S57.71,42,67.1,36.55Zm.09,34.74c7.32-4.23,13.22-14.46,13.2-22.86s-6-11.79-13.28-7.56S53.89,55.32,53.92,63.71s6,11.8,13.27,7.58Z"/><g class="cls-38"><path class="cls-39" d="M85.56,106.47c7.21,4.16,18.87,4.16,26,0s7.13-10.92-.08-15.08-18.86-4.16-26,0-7.13,10.91.08,15.08"/><path class="cls-40" d="M83.29,99.93c8.47,4.69,22.17,4.69,30.6,0s8.37-12.3-.1-17-22.18-4.69-30.6,0-8.38,12.29.1,17"/><path class="cls-41" d="M81,93.4c9.74,5.21,25.49,5.21,35.17,0s9.63-13.68-.11-18.89-25.49-5.22-35.18,0S71.26,88.18,81,93.4"/><path class="cls-42" d="M78.73,86.87c11,5.74,28.8,5.74,39.74,0s10.88-15.06-.12-20.8-28.81-5.75-39.75,0-10.88,15.05.13,20.8"/><path class="cls-43" d="M76.45,80.33c12.28,6.27,32.12,6.27,44.32,0s12.13-16.44-.15-22.71-32.11-6.27-44.31,0-12.13,16.44.14,22.71"/><path class="cls-44" d="M74.17,73.8c13.55,6.79,35.44,6.79,48.89,0S136.44,56,122.9,49.18s-35.43-6.8-48.89,0S60.63,67,74.17,73.8"/><path class="cls-45" d="M71.89,67.27c14.82,7.32,38.75,7.32,53.46,0s14.64-19.21-.17-26.53-38.74-7.32-53.46,0-14.63,19.2.17,26.53"/></g><g class="cls-3"><path class="cls-4" d="M66.12,52.69A12.35,12.35,0,1,1,53.78,40.35,12.35,12.35,0,0,1,66.12,52.69Z"/><path class="cls-5" d="M64.2,52.82A10.42,10.42,0,1,1,53.78,42.4,10.42,10.42,0,0,1,64.2,52.82Z"/><path class="cls-6" d="M62.27,53a8.5,8.5,0,1,1-8.49-8.49A8.5,8.5,0,0,1,62.27,53Z"/><path class="cls-7" d="M60.34,53.08a6.57,6.57,0,1,1-6.56-6.56A6.56,6.56,0,0,1,60.34,53.08Z"/><path class="cls-8" d="M58.42,53.22a4.64,4.64,0,1,1-4.64-4.64A4.65,4.65,0,0,1,58.42,53.22Z"/><path class="cls-9" d="M56.49,53.35a2.72,2.72,0,1,1-2.71-2.72A2.71,2.71,0,0,1,56.49,53.35Z"/><path class="cls-10" d="M54.56,53.48a.79.79,0,1,1-.78-.79A.79.79,0,0,1,54.56,53.48Z"/></g></g></g></g></svg>