<svg xmlns="http://www.w3.org/2000/svg" viewBox="0 0 130.25 113.15"><defs><style>.cls-1{isolation:isolate;}.cls-2{fill:#45d0c1;}.cls-3{opacity:0.1;}.cls-4{fill:#aeafaf;}.cls-5{fill:#3b2c1c;}.cls-6{fill:#c3c5c5;}.cls-7{fill:#443320;}.cls-8{fill:#6d5333;}.cls-9{fill:#888;}.cls-10{fill:#dbdbdb;}.cls-11{fill:#e3e5e5;}.cls-12{fill:#a3a3a3;}.cls-13{fill:#e6e7ec;}.cls-14,.cls-50{opacity:0.5;}.cls-14{mix-blend-mode:overlay;}.cls-15,.cls-16,.cls-17,.cls-18,.cls-19,.cls-20,.cls-21{fill:#fcfdfd;}.cls-15{opacity:0.8;}.cls-16,.cls-49{opacity:0.67;}.cls-17{opacity:0.53;}.cls-18,.cls-46{opacity:0.4;}.cls-19{opacity:0.27;}.cls-20{opacity:0.13;}.cls-21,.cls-53{opacity:0;}.cls-22{opacity:0.7;}.cls-23{fill:#cb3e6f;}.cls-24{fill:#e8568e;}.cls-25{opacity:0.2;}.cls-26{fill:#33ade3;}.cls-27{fill:#b539df;}.cls-28{fill:#4d0169;}.cls-29{fill:#6e0095;}.cls-30{fill:#452617;}.cls-31{fill:#414042;}.cls-32{fill:#303030;}.cls-33{fill:#d67912;}.cls-34{fill:#ed8001;}.cls-35{fill:#facd00;}.cls-36{fill:#e6a376;}.cls-37{fill:#cace7a;}.cls-38{fill:#d38f62;}.cls-39{fill:#1e292e;}.cls-40{fill:#12191c;}.cls-41{fill:#252625;}.cls-42{fill:#efb185;}.cls-43{fill:#323433;}.cls-44{fill:#ebf2a5;}.cls-45{fill:#231202;}.cls-47{fill:#fff;}.cls-48{opacity:0.83;}.cls-51{opacity:0.33;}.cls-52{opacity:0.17;}</style></defs><title>Ativo 3</title><g class="cls-1"><g id="Camada_2" data-name="Camada 2"><g id="Layer_1" data-name="Layer 1"><path class="cls-2" d="M110.82,49.56C85.19,34.54,44,34,18.72,48.34s-24.92,38.16.71,53.18,66.86,15.56,92.09,1.22S136.45,64.58,110.82,49.56Z"/><g class="cls-3"><polygon points="13.43 82.69 35.48 95.71 83.19 68.18 60.38 54.92 13.43 82.69"/></g><g class="cls-1"><polygon class="cls-4" points="30.06 88.59 28.94 87.94 28.84 55.03 29.97 55.69 30.06 88.59"/><polygon class="cls-5" points="29.97 55.69 28.84 55.03 30.55 54.05 31.67 54.7 29.97 55.69"/><polygon class="cls-6" points="31.67 54.7 31.77 87.61 30.06 88.59 29.97 55.69 31.67 54.7"/></g><g class="cls-1"><polygon class="cls-4" points="63.36 70.08 62.23 69.42 62.14 36.52 63.26 37.17 63.36 70.08"/><polygon class="cls-5" points="63.26 37.17 62.14 36.52 63.84 35.53 64.97 36.19 63.26 37.17"/><polygon class="cls-6" points="64.97 36.19 65.06 69.09 63.36 70.08 63.26 37.17 64.97 36.19"/></g><g class="cls-1"><polygon class="cls-7" points="68.75 37.88 65.94 36.24 65.84 4.52 68.66 6.16 68.75 37.88"/><polygon class="cls-8" points="23.3 64.12 20.48 62.48 65.94 36.24 68.75 37.88 23.3 64.12"/><polygon class="cls-9" points="23.3 64.12 20.48 62.48 20.39 30.77 23.21 32.4 23.3 64.12"/><polygon class="cls-10" points="23.21 32.4 20.39 30.77 65.84 4.52 68.66 6.16 23.21 32.4"/><path class="cls-6" d="M20.74,30.82,71.28,1.64l.1,37.6L20.84,68.42Zm48,7.06L68.66,6.16,23.21,32.4l.09,31.72L68.75,37.88Z"/><polygon class="cls-11" points="68.66 6.16 68.75 37.88 23.3 64.12 23.21 32.4 68.66 6.16"/><polygon class="cls-12" points="20.84 68.42 18.03 66.78 17.92 29.18 20.74 30.82 20.84 68.42"/><polygon class="cls-13" points="20.74 30.82 17.92 29.18 68.46 0 71.28 1.64 20.74 30.82"/></g><g class="cls-14"><path class="cls-15" d="M78.51,101.15c6,3.45,15.66,3.45,21.61,0s5.91-9-.07-12.51-15.66-3.45-21.61,0-5.91,9.06.07,12.52"/><path class="cls-16" d="M76.62,95.72c7,3.89,18.41,3.89,25.4,0s7-10.2-.08-14.09-18.41-3.89-25.4,0-7,10.2.08,14.09"/><path class="cls-17" d="M74.73,90.3c8.09,4.33,21.16,4.33,29.19,0s8-11.35-.09-15.68-21.16-4.33-29.2,0-8,11.35.1,15.68"/><path class="cls-18" d="M72.84,84.88c9.14,4.76,23.91,4.76,33,0s9-12.5-.1-17.26-23.91-4.77-33,0-9,12.49.11,17.26"/><path class="cls-19" d="M71,79.46c10.19,5.2,26.65,5.2,36.78,0s10.06-13.65-.12-18.85-26.66-5.2-36.78,0S60.76,74.25,71,79.46"/><path class="cls-20" d="M69.06,74c11.24,5.63,29.4,5.63,40.57,0s11.11-14.8-.13-20.43-29.41-5.64-40.57,0S57.82,68.39,69.06,74"/><path class="cls-21" d="M67.17,68.61c12.29,6.08,32.15,6.08,44.36,0s12.15-15.93-.14-22S79.23,40.52,67,46.6s-12.15,15.93.14,22"/></g><g class="cls-22"><polygon class="cls-23" points="46.91 40.47 46.91 41.68 33.78 49.26 33.78 48.05 46.91 40.47"/><polygon class="cls-23" points="74.45 27.9 74.47 36.55 55.81 47.33 55.78 38.68 74.45 27.9"/><path class="cls-24" d="M53.87,37.66l22-12.7,0,19.22-22,12.7Zm20.6-1.11,0-8.65L55.78,38.68l0,8.65L74.47,36.55Z"/><polygon class="cls-24" points="75.86 21.51 75.86 22.96 53.87 35.66 53.86 34.2 75.86 21.51"/><polygon class="cls-23" points="46.94 51.37 46.97 59.95 33.83 67.53 33.81 58.96 46.94 51.37"/><path class="cls-24" d="M32.33,40.63,49.1,31l.09,29.53L32.41,70.16ZM47,60l0-8.59L33.81,59l0,8.58L47,60ZM46.9,35.68V34.46L33.76,42.05v1.21L46.9,35.68Zm0,6V40.47L33.78,48.05v1.21l13.13-7.58Zm0,2.73V43.19L33.79,50.78V52l13.13-7.58Zm0-6V37.19L33.77,44.78V46L46.9,38.41Z"/><g class="cls-22"><path class="cls-23" d="M30.57,35.62,77.88,8.31,78,45.42,30.68,72.74ZM49.19,60.48,49.1,31,32.33,40.63l.08,29.53,16.78-9.68Zm26.73-16.3,0-19.22-22,12.7.06,19.22,22-12.7Zm-.08-30.31V10.6L31.68,36.09v3.27L75.84,13.87Zm0,3.09V15.51l-22,12.69v1.46l22-12.7Zm0,2.73V18.23l-22,12.7v1.46l22-12.7Zm0,3.27V21.51l-22,12.69v1.46l22-12.7Z"/></g><polygon class="cls-24" points="75.85 18.23 75.85 19.69 53.86 32.39 53.85 30.93 75.85 18.23"/><polygon class="cls-23" points="32.32 38.08 56.3 24.24 56.29 22.7 32.32 36.54 32.32 38.08"/><path class="cls-24" d="M75.84,13.87V10.6L31.68,36.09v3.27ZM75,11.92v1.54l-9.49,5.48V17.4L75,11.92ZM56.29,22.7v1.54l-24,13.84V36.54l24-13.84Z"/><polygon class="cls-23" points="74.96 11.92 74.97 13.46 65.47 18.94 65.47 17.4 74.96 11.92"/><polygon class="cls-24" points="75.84 15.51 75.85 16.96 53.85 29.66 53.85 28.2 75.84 15.51"/><polygon class="cls-23" points="46.92 43.19 46.92 44.41 33.79 51.99 33.79 50.78 46.92 43.19"/><polygon class="cls-23" points="46.9 37.19 46.9 38.41 33.77 45.99 33.77 44.77 46.9 37.19"/><polygon class="cls-23" points="46.89 34.47 46.9 35.68 33.76 43.26 33.76 42.05 46.89 34.47"/></g><polygon class="cls-23" points="58.83 46.73 58.83 48.05 44.61 56.25 44.61 54.94 58.83 46.73"/><polygon class="cls-23" points="88.64 33.13 88.66 42.5 68.46 54.16 68.43 44.8 88.64 33.13"/><path class="cls-24" d="M66.37,43.69,90.18,30l0,20.8L66.43,64.5ZM88.66,42.5l0-9.37L68.43,44.8l0,9.37L88.66,42.5Z"/><polygon class="cls-24" points="90.17 26.21 90.17 27.78 66.36 41.53 66.35 39.95 90.17 26.21"/><polygon class="cls-23" points="58.86 58.54 58.89 67.83 44.67 76.04 44.64 66.75 58.86 58.54"/><path class="cls-24" d="M43,46.91,61.2,36.42l.09,32L43.13,78.88ZM58.89,67.83l0-9.29L44.64,66.75l0,9.29,14.22-8.21Zm-.08-26.28V40.24l-14.21,8.2v1.32l14.22-8.21Zm0,6.49V46.73L44.61,54.94v1.31L58.83,48Zm0,3V49.69L44.62,57.9v1.31L58.84,51Zm0-6.5V43.19L44.6,51.4v1.31L58.82,44.5Z"/><g class="cls-22"><path class="cls-23" d="M41.14,41.49,92.36,11.92l.11,40.18L41.26,81.67Zm20.15,26.9-.09-32L43,46.91l.09,32L61.29,68.39ZM90.23,50.75l0-20.8L66.37,43.69l.06,20.81,23.8-13.75Zm-.09-32.81V14.4L42.34,42v3.54L90.14,17.94Zm0,3.35V19.71L66.34,33.46V35L90.15,21.29Zm0,2.95V22.66L66.35,36.41V38L90.16,24.24Zm0,3.54V26.21L66.35,40v1.58L90.17,27.78Z"/></g><polygon class="cls-24" points="90.15 22.66 90.16 24.24 66.35 37.98 66.35 36.41 90.15 22.66"/><polygon class="cls-23" points="43.03 44.15 68.99 29.17 68.98 27.5 43.03 42.48 43.03 44.15"/><path class="cls-24" d="M90.14,17.94V14.4L42.34,42v3.54Zm-1-2.11V17.5L78.92,23.43V21.76l10.27-5.93ZM69,27.5v1.67l-26,15V42.48l26-15Z"/><polygon class="cls-23" points="89.19 15.83 89.19 17.5 78.92 23.43 78.92 21.76 89.19 15.83"/><polygon class="cls-24" points="90.15 19.71 90.15 21.29 66.34 35.03 66.34 33.46 90.15 19.71"/><polygon class="cls-23" points="58.83 49.69 58.84 51 44.62 59.21 44.62 57.9 58.83 49.69"/><polygon class="cls-23" points="58.82 43.19 58.82 44.5 44.6 52.71 44.6 51.4 58.82 43.19"/><polygon class="cls-23" points="58.8 40.23 58.81 41.55 44.59 49.76 44.59 48.44 58.8 40.23"/><g class="cls-25"><path class="cls-26" d="M83.28,45c0,6.35-10,21.13-16.34,21.13s-11.13-1.93-11.13-8.28,9.77-24.35,16.06-24.35A11.46,11.46,0,0,1,83.28,45Z"/></g><polygon class="cls-27" points="87.94 40.72 85.72 39.42 85.64 32.24 87.87 33.53 87.94 40.72"/><path class="cls-28" d="M105,23.53l.22-.09.31-.1.15-.05.17,0,.2,0h.43a1.36,1.36,0,0,1,.29,0h0a1.11,1.11,0,0,1,.26.07l.06,0,.24.11-2.23-1.29,0,0L104.9,22l-.05,0-.06,0-.07,0-.18-.05h0l-.23,0h-.36l-.13,0h-.06l-.14,0-.17,0h-.05l-.09,0-.32.11-.08,0-.13.06-.11.05a3.48,3.48,0,0,0-.38.2L85.64,32.24l2.23,1.29,16.63-9.75.38-.2Z"/><path class="cls-29" d="M104.5,23.78c2-1.18,3.67-.52,3.69,1.45A7.52,7.52,0,0,1,104.57,31L87.94,40.72l-.07-7.19Z"/><g class="cls-1"><polygon class="cls-30" points="83.79 42.1 81.56 40.81 81.51 35.93 83.74 37.22 83.79 42.1"/><polygon class="cls-31" points="83.74 37.22 81.51 35.93 85.66 33.48 87.89 34.78 83.74 37.22"/><polygon class="cls-32" points="87.89 34.78 87.95 39.66 83.79 42.1 83.74 37.22 87.89 34.78"/></g><path class="cls-33" d="M81.18,45.9c0-.16,0-.33.08-.49a1.52,1.52,0,0,1,0-.21v-.05c0-.34.08-.68.1-1,0-.06,0-.13,0-.19,0-.34,0-.69,0-1,0-3.67-1.32-6.26-3.41-7.48l-2.23-1.3c2.1,1.22,3.4,3.81,3.41,7.49,0,.34,0,.68,0,1,0,.06,0,.12,0,.19,0,.33,0,.67-.1,1l0,.27c0,.16,0,.32-.08.49s0,.19,0,.29-.06.33-.1.49,0,.15,0,.23c-.09.39-.18.78-.29,1.18l-.06.19c-.1.35-.2.69-.31,1,0,0,0,0,0,0-.11.33-.23.66-.35,1l-.09.23c-.11.29-.22.57-.35.85l0,.1c-.13.3-.27.6-.41.9l-.11.23-.36.71a2.12,2.12,0,0,0-.11.21c-.15.29-.32.58-.49.87l-.08.15c-.15.26-.31.51-.47.76l-.13.21c-.19.3-.39.59-.59.87l-.09.14c-.21.29-.42.58-.64.86l-.1.14c-.28.35-.56.69-.85,1l-.13.15c-.17.2-.34.39-.52.58l0,.05c-.2.22-.4.41-.6.61l-.13.13c-.26.25-.52.5-.8.74l-.07.07c-.28.24-.56.48-.85.7a1.09,1.09,0,0,1-.17.13c-.28.22-.56.43-.85.63l-.16.1c-.3.2-.61.4-.92.58l-.74.39-.21.11-.55.25-.21.09-.51.19-.13,0c-.21.07-.42.14-.63.19s-.24.06-.36.09l-.17,0-.53.09a5.16,5.16,0,0,1-.78.08H62.6a5.12,5.12,0,0,1-.68,0h-.11l-.53-.07-.16,0a4.92,4.92,0,0,1-.58-.14h0a5.52,5.52,0,0,1-.53-.18l-.15-.07-.42-.2-.14-.08,0,0,0,0,2.22,1.29.07,0,.07,0,.43.21.08,0,.07,0a4.76,4.76,0,0,0,.53.19h0c.2,0,.39.1.59.13l.07,0h.09a4.35,4.35,0,0,0,.52.06h.12c.22,0,.45,0,.67,0H65c.26,0,.51,0,.78-.08h0l.53-.1.16,0,.34-.08h0l.63-.19.15-.06.49-.19.07,0a.84.84,0,0,0,.14-.06c.18-.07.36-.16.54-.24l.22-.11c.25-.12.49-.26.74-.4s.61-.37.92-.57l.15-.11.86-.62.17-.13c.29-.23.57-.46.84-.7l.09-.08c.26-.23.53-.48.79-.73a.3.3,0,0,1,.08-.08l0,0,.6-.61,0,0c.18-.2.36-.39.53-.59l.06-.06.06-.08c.3-.34.58-.69.86-1l0,0,.06-.08c.22-.29.44-.59.65-.89l.07-.09,0,0c.2-.29.4-.59.59-.89a.22.22,0,0,0,.05-.08.83.83,0,0,0,.08-.12c.16-.25.31-.5.46-.76a.36.36,0,0,0,.07-.1s0,0,0,0c.17-.29.33-.58.49-.88l0-.06a.61.61,0,0,1,.07-.14l.36-.72s.05-.09.07-.14l0-.08c.14-.3.28-.6.41-.91v0l0-.08.34-.84a.69.69,0,0,1,0-.13l0-.1c.12-.33.24-.66.35-1v0s0,0,0,0c.11-.34.21-.68.31-1,0,0,0-.08,0-.13a.64.64,0,0,0,0-.07c.1-.39.2-.78.28-1.17l0-.1,0-.13.09-.49C81.15,46.1,81.16,46,81.18,45.9Z"/><path class="cls-34" d="M70.93,31.79l.71-.32.26-.1c.22-.1.45-.18.67-.27l.16-.05c.27-.09.54-.18.8-.25l.47-.11.22-.06.68-.13h0l.62-.07.2,0,.43,0h1l.68.08.21,0a6.74,6.74,0,0,1,.75.17h0c.23.07.46.15.68.24l.19.08c.19.08.37.17.56.27l.18.09L78.15,30.1l-.09-.05L78,30l-.56-.27-.1,0-.08,0a6,6,0,0,0-.68-.23h0l-.75-.17-.09,0h-.12a5.05,5.05,0,0,0-.68-.08l-.1,0h-1l-.28,0H73.3l-.59.07h-.07l-.65.13-.22.05-.42.1h0l-.81.25-.16.06c-.22.08-.45.16-.67.26l-.08,0-.17.07c-.24.1-.47.21-.71.33l-.28.13-1,.51-.71.44-.23.15-.49.32-.26.19-.44.32a1.89,1.89,0,0,0-.27.2l-.45.35-.24.19-.5.42-.18.16-.67.6-.1.1-.47.44-.06.07c-.26.26-.51.51-.76.78l-.06.07c-.23.24-.46.5-.69.76l-.06.07a.73.73,0,0,0-.08.09c-.38.44-.74.89-1.1,1.35l0,0a.86.86,0,0,0-.07.1c-.29.37-.57.75-.84,1.13a.83.83,0,0,0-.08.12l0,0c-.26.37-.51.75-.76,1.13l-.07.11a1.62,1.62,0,0,0-.1.18q-.3.45-.57.93a1.4,1.4,0,0,0-.1.16.21.21,0,0,0,0,.06l-.62,1.11a.41.41,0,0,1,0,.09l-.09.2c-.16.29-.31.58-.45.88l-.1.19-.06.13c-.18.38-.35.76-.52,1.14,0,0,0,0,0,0a.61.61,0,0,1,0,.12c-.15.35-.29.69-.42,1l-.08.18s0,.1-.05.15c-.16.41-.31.82-.44,1.24,0,0,0,0,0,0a.29.29,0,0,1,0,.09c-.14.42-.27.85-.39,1.27a1.09,1.09,0,0,1,0,.17c0,.06,0,.11,0,.16s-.06.24-.1.36-.09.36-.13.55l-.09.37L53.1,52a1.42,1.42,0,0,0,0,.2c0,.19-.08.38-.11.58s-.05.27-.07.41-.07.41-.1.61,0,.19,0,.28,0,.08,0,.12a2.4,2.4,0,0,0,0,.28c0,.19,0,.38-.06.57l0,.3,0,.59c0,.08,0,.17,0,.25,0,.28,0,.55,0,.82,0,4.73,1.68,8.05,4.37,9.62l2.23,1.29c-2.69-1.56-4.36-4.88-4.37-9.61,0-.27,0-.55,0-.83,0-.08,0-.16,0-.25s0-.39,0-.59l0-.29a5.23,5.23,0,0,1,.06-.57,2.83,2.83,0,0,0,0-.29L55,55.1l.09-.61c0-.14,0-.28.07-.41l.12-.59c0-.16.06-.32.1-.47l.09-.38c0-.18.08-.36.13-.54s.06-.24.1-.37l.09-.32c.12-.43.25-.85.39-1.28l0-.11q.21-.62.45-1.23l.12-.34c.14-.35.28-.69.43-1a.77.77,0,0,1,.07-.16c.17-.39.34-.77.52-1.15l.15-.32c.15-.29.3-.59.46-.88a2.44,2.44,0,0,1,.14-.28c.2-.38.41-.75.62-1.11,0-.08.09-.15.13-.22l.57-.94.18-.28c.25-.39.5-.76.76-1.13l.12-.17c.27-.39.55-.76.84-1.14l.1-.14q.54-.69,1.11-1.35l.14-.16.69-.77.06-.06c.25-.26.5-.52.76-.77l.52-.51.11-.11.67-.6.17-.15.51-.42.24-.2.44-.35.27-.2.45-.32.26-.18.48-.33.23-.14.72-.44,1-.51Z"/><path class="cls-35" d="M69.71,32.44c8.28-4.78,15-.95,15,8.57S78.09,62.09,69.81,66.88s-15,.94-15-8.57S61.44,37.22,69.71,32.44Zm.09,30.63c6.45-3.72,11.66-12.75,11.64-20.16s-5.27-10.39-11.72-6.67S58.07,49,58.09,56.4s5.26,10.39,11.71,6.67Z"/><g class="cls-3"><path d="M83.67,91c-3.73,2.16-3.75,5.65,0,7.8a14.83,14.83,0,0,0,13.48,0c3.73-2.15,3.75-5.64,0-7.8A14.87,14.87,0,0,0,83.67,91Z"/></g><path class="cls-36" d="M95.45,69.18c.69.75.82.73,1,.54.77-.94.48-3.1.35-3.27a2,2,0,0,1-.41-.88s0-.09,0-.14l-1.31.28a4.62,4.62,0,0,1,0,1.37A3,3,0,0,0,95.45,69.18Z"/><path class="cls-37" d="M92.51,50.63c2.46-.54,4.08,7.76,4.11,9.95l.31,5.49a2.16,2.16,0,0,1-2.07,0l-.63-5.47C94,60,89.77,51.24,92.51,50.63Z"/><path class="cls-38" d="M90.54,67.49s2.61,1.43,2.1,5.94-.85,4.39-.23,5.66c.47,1,1.88,2.85,2.09,4.67.17,1.44.09,2.3.18,4.65.12,3,.1,2.35.7,3.5.68,1.31-1.58,3-2.39,3s.82-.91.27-3.31A59.28,59.28,0,0,0,89.19,81c-.94-1.41-3.49-9.16-3.74-11.62A6,6,0,0,0,90.54,67.49Z"/><path class="cls-39" d="M93.14,95.79s0,0,0,0Z"/><polygon class="cls-40" points="95.02 93.11 95.81 95.54 96.03 95.86 95.31 93.07 95.02 93.11"/><path class="cls-39" d="M95.11,91.43c-.33.07-.54.56-.89,1.74-.15.49-.62,1.76-1.34,1.47-.08,0,.08-.36.08-.36s-1,0-1.09.28a1.79,1.79,0,0,0,1.95,1.23c1-.33,1-1.48,1.14-2,.28-.93.48.85.81-1A1.44,1.44,0,0,0,95.11,91.43Z"/><path class="cls-40" d="M93.82,95.79a1.14,1.14,0,0,1-.66,0c.25.09.79-.46,1.06-1.31a3,3,0,0,1,1.09-1.41l.22.15c-.07.44-.2-.29-.57.62C94.77,94.29,94.81,95.46,93.82,95.79Z"/><polygon class="cls-39" points="95.67 92.47 96.06 96.13 95.43 95.95 94.68 92.25 95.67 92.47"/><path class="cls-40" d="M96.06,96.13l.34-.36s-.34-3.2-.8-3.84-.49-.5-.49-.5Z"/><path class="cls-41" d="M92.31,64.27A5.84,5.84,0,0,1,94,69.42c-.67,3-2.25,7-1.66,8.85s2.08,3.83,2.19,5.49.29,5.95.29,5.95-.2.81-1.79.92c0,0-4.06-8.06-4.8-10.27s-.29-14.75-.29-14.75S91.14,65.46,92.31,64.27Z"/><path class="cls-42" d="M89.56,67.24s2,2.56.49,6.84-1.83,4.08-1.51,5.47c.24,1,1.19,3.2,1,5-.15,1.43-.43,2.26-.87,4.56-.55,2.94-.44,2.32-.11,3.58.37,1.42-2.2,2.52-3,2.36s1-.71,1-3.16A60.63,60.63,0,0,0,85,80.69c-.6-1.58-.77-11.27-.45-13.73A4,4,0,0,0,89.56,67.24Z"/><path class="cls-39" d="M85.5,96h0Z"/><polygon class="cls-40" points="87.93 93.8 88.15 96.33 88.3 96.7 88.22 93.82 87.93 93.8"/><path class="cls-39" d="M88.4,92.17c-.34,0-.66.43-1.27,1.5-.25.45-1,1.57-1.62,1.13-.08,0,.15-.33.15-.33s-1-.27-1.12,0,.58,1.71,1.61,1.62,1.31-1.21,1.55-1.63c.49-.85.29.94,1-.76A1.45,1.45,0,0,0,88.4,92.17Z"/><path class="cls-40" d="M86.15,96.12a1.08,1.08,0,0,1-.64-.14c.22.14.87-.26,1.33-1a3,3,0,0,1,1.38-1.13l.18.2c-.17.41-.13-.34-.7.47C87.42,94.89,87.2,96,86.15,96.12Z"/><polygon class="cls-39" points="88.71 93.31 88.26 96.97 87.69 96.65 87.79 92.88 88.71 93.31"/><path class="cls-40" d="M88.26,97l.41-.27s.39-3.2.09-3.93-.36-.6-.36-.6Z"/><path class="cls-43" d="M93,65.07a3.93,3.93,0,0,0-1.69,2.42c-.22,1.1.11,2.54-.43,4.47-.94,3.3-2.48,6.91-2.14,7.8.57,1.5,1.3,2.91.49,7.73L88.83,90a3.48,3.48,0,0,1-2.84.46s-1.25-8.48-1.62-11.76c-.25-2.22.16-11.69.16-11.69l.08-1.35S91,65.6,93,65.07Z"/><path class="cls-44" d="M86.61,52.5s-3.83,2.1-3.39,3.35c.75,2.12,2.08,6.62,1.28,10a4.51,4.51,0,0,0,3.34,1.43C90.2,67.19,93,65.07,93,65.07a7.72,7.72,0,0,1,.15-7c.95-1.77,2.19-7.34-.4-7.64C92.72,50.43,92,49.63,86.61,52.5Z"/><path class="cls-42" d="M86.55,50.46l.24,2.45a2.9,2.9,0,0,0,3.59-.66l-.24-2.47A8.48,8.48,0,0,1,86.55,50.46Z"/><path class="cls-37" d="M84.5,65.87c.8-3.4-.73-6.76-1.32-8.93a2.59,2.59,0,0,1,1.36-3.07,2.66,2.66,0,0,1,2.95,2.62c.11,2.29-.61,7.36-.13,10.8A4.64,4.64,0,0,1,84.5,65.87Z"/><path class="cls-36" d="M68.14,52.07c-1,.34-1,.47-.87.69a4.36,4.36,0,0,0,2.86,1.6,2,2,0,0,1,1,0l.12,0,.26-1.32a4.69,4.69,0,0,1-1.24-.57A3,3,0,0,0,68.14,52.07Z"/><path class="cls-37" d="M86.37,56.62c-.47,2.48-8.74.72-10.76-.11l-5.18-1.87a2.16,2.16,0,0,1,.86-1.88l5.27,1.56C77.2,54.29,86.88,53.86,86.37,56.62Z"/><path class="cls-45" d="M87.85,43.29a3,3,0,0,0-2.57,1.37c-.71,1.39-1.31,3.44-.43,4.6a4.73,4.73,0,0,1,.1,4.3c-.44.4,5.62,3.11,7.9-.29C92.85,53.27,93.49,42,87.85,43.29Z"/><g class="cls-46"><polygon class="cls-47" points="68.39 5.98 68.48 37.69 23.03 63.94 22.94 32.22 68.39 5.98"/><g class="cls-48"><polygon class="cls-47" points="71.88 5.74 71.98 38.79 24.61 66.14 24.51 33.09 71.88 5.74"/></g><g class="cls-49"><polygon class="cls-47" points="75.37 5.51 75.47 39.89 26.19 68.35 26.09 33.96 75.37 5.51"/></g><g class="cls-50"><polygon class="cls-47" points="78.86 5.27 78.97 40.99 27.77 70.55 27.67 34.83 78.86 5.27"/></g><g class="cls-51"><polygon class="cls-47" points="82.35 5.04 82.46 42.09 29.35 72.75 29.24 35.7 82.35 5.04"/></g><g class="cls-52"><polygon class="cls-47" points="85.84 4.8 85.95 43.19 30.93 74.96 30.82 36.57 85.84 4.8"/></g><g class="cls-53"><polygon class="cls-47" points="89.33 4.56 89.45 44.29 32.51 77.16 32.39 37.44 89.33 4.56"/></g></g></g></g></g></svg>