<svg xmlns="http://www.w3.org/2000/svg" xmlns:xlink="http://www.w3.org/1999/xlink" viewBox="0 0 139.88 121.79"><defs><style>.cls-1{fill:none;}.cls-2{isolation:isolate;}.cls-3{fill:#45d0c1;}.cls-4,.cls-68{opacity:0.1;}.cls-5{fill:#c5c5c5;}.cls-6{fill:#9c9d9d;}.cls-7{fill:#838484;}.cls-8{fill:#7e7f7f;}.cls-9{clip-path:url(#clip-path);}.cls-10{fill:#babbbb;}.cls-11{fill:#d2d0d0;}.cls-12{fill:silver;}.cls-13{fill:#e9f0f4;}.cls-14{clip-path:url(#clip-path-2);}.cls-15{fill:#b2c5cc;}.cls-16{fill:#adc0c7;}.cls-17{fill:#a9bbc2;}.cls-18{fill:#a4b6bd;}.cls-19{fill:#a0b1b8;}.cls-20{fill:#9bacb3;}.cls-21{fill:#97a7ad;}.cls-22{fill:#93a2a8;}.cls-23{fill:#8e9da3;}.cls-24{fill:#8a999e;}.cls-25{fill:#859499;}.cls-26{fill:#818f94;}.cls-27{fill:#7c8a8f;}.cls-28{fill:#78858a;}.cls-29{fill:#738085;}.cls-30{clip-path:url(#clip-path-3);}.cls-31{clip-path:url(#clip-path-4);}.cls-32{fill:#87abbb;}.cls-33{fill:#84a7b7;}.cls-34{fill:#80a3b2;}.cls-35{fill:#7d9ead;}.cls-36{fill:#7a9aa8;}.cls-37{fill:#7696a4;}.cls-38{fill:#73929f;}.cls-39{fill:#708d9a;}.cls-40{fill:#6c8996;}.cls-41{fill:#698591;}.cls-42{clip-path:url(#clip-path-5);}.cls-43{fill:#586f7a;}.cls-44{fill:#5b747e;}.cls-45{fill:#5f7883;}.cls-46{fill:#627c88;}.cls-47{fill:#65808c;}.cls-48{fill:#8fedff;}.cls-49{fill:#bfd4db;}.cls-50{fill:#778488;}.cls-51{fill:#42e8cf;}.cls-52{fill:#91b8c9;}.cls-53{fill:#5a727d;}.cls-54{fill:#c3c5c5;}.cls-55{fill:#e6e7ec;}.cls-56{fill:#4d0169;}.cls-57{fill:#a8a8a8;}.cls-58{fill:#37034c;}.cls-59{fill:#6e0095;}.cls-60{fill:#939393;}.cls-61{fill:#ebebf0;}.cls-62{fill:#e3e3e5;}.cls-63{fill:#b539df;}.cls-64{fill:#facd00;}.cls-65{fill:#fca922;}.cls-66{fill:#ed8001;}.cls-67,.cls-92{opacity:0.5;}.cls-68,.cls-70,.cls-72,.cls-73,.cls-75,.cls-77,.cls-79{fill:#fff;}.cls-69{opacity:0.83;}.cls-70{opacity:0.25;}.cls-71{opacity:0.67;}.cls-72{opacity:0.4;}.cls-73{opacity:0.55;}.cls-74{opacity:0.33;}.cls-75{opacity:0.7;}.cls-76{opacity:0.17;}.cls-77{opacity:0.85;}.cls-78,.cls-99{opacity:0;}.cls-80{fill:#33b3a0;}.cls-81{fill:#111114;}.cls-82{fill:#323433;}.cls-83{fill:#252625;}.cls-84{fill:#e6a376;}.cls-85{fill:#cace7a;}.cls-86{fill:#ebf2a5;}.cls-87{fill:#efb185;}.cls-88{fill:#dd9569;}.cls-89{fill:#4d2201;}.cls-90{fill:#a5420b;}.cls-91{fill:#def0f9;}.cls-92{mix-blend-mode:overlay;}.cls-93,.cls-94,.cls-95,.cls-96,.cls-97,.cls-98,.cls-99{fill:#fcfdfd;}.cls-93{opacity:0.8;}.cls-94{opacity:0.67;}.cls-95{opacity:0.53;}.cls-96{opacity:0.4;}.cls-97{opacity:0.27;}.cls-98{opacity:0.13;}</style><clipPath id="clip-path"><path class="cls-1" d="M111.49,42.15l-6.1,3.55c-.16.1-.32.2-.48.32L111,42.47Z"/></clipPath><clipPath id="clip-path-2"><path class="cls-1" d="M44,70.59a1.5,1.5,0,0,0-.62-1.36l2.25,1.31h0a1.48,1.48,0,0,1,.62,1.36,4.62,4.62,0,0,1-2.1,3.63l-2.25-1.31A4.62,4.62,0,0,0,44,70.59Z"/></clipPath><clipPath id="clip-path-3"><path class="cls-1" d="M40.44,74.37a1.47,1.47,0,0,0,1.5-.15l2.25,1.31a1.49,1.49,0,0,1-1.5.15Z"/></clipPath><clipPath id="clip-path-4"><path class="cls-1" d="M43.42,69.23l2.25,1.31a1.47,1.47,0,0,0-1.49.15l-2.26-1.31A1.49,1.49,0,0,1,43.42,69.23Z"/></clipPath><clipPath id="clip-path-5"><path class="cls-1" d="M42.69,75.68l-1.8-1-.11-.07-.34-.19A1.47,1.47,0,0,1,39.83,73a4.64,4.64,0,0,1,2.09-3.65l2.26,1.31a4.59,4.59,0,0,0-2.1,3.64A1.49,1.49,0,0,0,42.69,75.68Z"/></clipPath></defs><title>Ativo 2</title><g class="cls-2"><g id="Camada_2" data-name="Camada 2"><g id="Layer_1" data-name="Layer 1"><path class="cls-3" d="M118.63,53.72C91.2,37.64,47.06,37.05,20,52.41s-26.68,40.84.76,56.92,71.57,16.67,98.58,1.31S146.06,69.8,118.63,53.72Z"/><g class="cls-4"><path d="M77.91,96.86c-4.44,2.56-4.46,6.72,0,9.29s11.58,2.55,16,0,4.46-6.72.05-9.28S82.35,94.3,77.91,96.86Z"/></g><g class="cls-4"><polygon points="139.88 80.49 125.81 89.11 83.9 62.88 97.24 55.13 139.88 80.49"/></g><path class="cls-5" d="M89,51.52c0-.14,0-.29,0-.43a1.5,1.5,0,0,1,0-.2c0-.22,0-.44,0-.66,0-2.1.76-3.59,2-4.3L97,42.38c-1.22.71-2,2.2-2,4.31,0,.21,0,.43,0,.65a.78.78,0,0,0,0,.16,4.23,4.23,0,0,0,0,.5,8.17,8.17,0,0,0,.14.84c0,.1,0,.2.07.3s.06.28.1.42.06.23.1.35.07.22.1.33.09.26.13.39l.1.27.17.44.09.21c.09.2.17.4.27.59,0,0,0,0,0,.06.11.21.21.42.33.64l.09.17.26.45.14.23.24.38.18.27.23.33.23.31.22.28c.1.14.21.26.32.39l.19.23c.22.24.44.48.68.71s.33.33.51.49l-6.11,3.54-.49-.46s0,0,0,0c-.23-.23-.45-.47-.67-.71,0,0,0,0-.06-.08l-.14-.16-.31-.37a1.47,1.47,0,0,0-.1-.13L92,58.52l-.22-.3-.11-.15-.12-.19-.18-.26-.09-.14-.15-.23L90.93,57s0-.06-.05-.09-.13-.22-.19-.33-.07-.14-.11-.2l0-.05c-.1-.18-.2-.38-.29-.57h0l-.05-.11c-.07-.16-.15-.31-.21-.47l0-.06c0-.09-.07-.17-.1-.25l-.12-.29s0-.08,0-.11l-.11-.3c0-.07,0-.15-.08-.23s0-.09,0-.14a3.37,3.37,0,0,1-.1-.34,1.72,1.72,0,0,1-.07-.21l0-.13c0-.14-.07-.28-.11-.42a1.6,1.6,0,0,0,0-.21s0-.06,0-.09c-.06-.28-.11-.57-.15-.84Z"/><path class="cls-6" d="M94.28,44.33a4.43,4.43,0,0,0-.58-.2l-.06,0-.27-.06L92.94,44q-.31,0-.63-.06h-.59l-.17,0-.39.06L91,44l-.39.12-.12.05a3.68,3.68,0,0,0-.49.23l6.1-3.54,0,0,.41-.2h0l.13,0,.26-.1.12,0,.18,0,.15,0,.23,0,.18,0h.6l.6.06h0l.41.09.27.06h0l.06,0c.19.06.39.12.59.2l.14,0,.11,0,.57.26L95.1,44.68l-.67-.3Z"/><path class="cls-7" d="M96,46.22a4.25,4.25,0,0,1,1.52-1.57l6.11-3.54a4.15,4.15,0,0,0-1.52,1.56L102,43l-6.1,3.55Z"/><polygon class="cls-8" points="104.69 46.18 110.8 42.64 111.02 42.47 104.91 46.02 104.69 46.18"/><path class="cls-6" d="M102.53,43.42,102,43.2l-.11-.05-.52-.2h0a4.59,4.59,0,0,0-.45-.14l-.23-.06-.19-.05-.25,0-.17,0H100l-.57-.05h-.75l-.4.05-.13,0a3.69,3.69,0,0,0-.45.11l-.07,0a3.3,3.3,0,0,0-.37.13l-.12,0-.33.16-.12.06,6.1-3.54,0,0,.06,0,.34-.17.07,0,.06,0,.36-.13.06,0h0l.45-.11h.12l.4,0h.75l.58.06h.08l.17,0,.25,0,.17,0,.2.05h0l.42.13.08,0a5.27,5.27,0,0,1,.51.19h0l.08,0,.49.22.16.08c.19.1.4.2.59.32s.61.37.93.59L104.2,44.4c-.31-.21-.62-.41-.92-.58s-.4-.22-.6-.32Z"/><g class="cls-2"><g class="cls-9"><g class="cls-2"><path class="cls-7" d="M104.91,46,111,42.47l.47-.32-6.1,3.55c-.16.1-.32.2-.48.32Z"/></g></g></g><path class="cls-10" d="M100,57.08c.16.17.34.34.52.51s.23.23.36.34l.37.35.39.34L102,59l.4.33.43.36.42.33.46.35.43.33.49.36.44.32.51.36.45.31c.17.13.35.25.53.37l.45.3.55.37.46.3.58.37c.14.1.29.19.44.28l.6.38a5.08,5.08,0,0,0,.43.27l.63.39.41.26.67.4.38.23.7.42.35.2L114,67l.26.15,1,.6.83.48.3.17.5.29.37.21.43.25.35.2c.14.08.28.17.42.24l.34.2.41.23.33.18.39.22.33.19.36.2L121,71l.36.2.31.17a3.9,3.9,0,0,1,.35.19l.3.16.36.19.27.14.38.2.24.12.53.26.07,0,.58.28.18.09.39.18.21.09.36.16.21.09.34.15.17.07.51.2.15.06.62.23.08,0c.18.07.36.12.54.18l.17,0,.49.14.11,0c.27.07.54.14.82.19l.1,0,.78.14.13,0,.68.09h.12l.67,0h1a3.49,3.49,0,0,0,.46,0h.11l.33,0,.12,0L135,75l.08,0a3.86,3.86,0,0,0,.41-.2l-6.11,3.55,0,0-.35.17h0l-.08,0-.24.08-.09,0-.13,0a.5.5,0,0,1-.13,0l-.19,0h-.57c-.33,0-.65,0-1,0h0c-.22,0-.45,0-.67,0h-.13l-.67-.08h-.13l-.79-.15-.09,0c-.28-.06-.55-.12-.83-.2h0l-.07,0-.51-.15-.16,0-.56-.19h0l-.64-.23-.13-.06-.54-.21-.08,0-.07,0-.36-.16-.19-.08-.39-.17-.17-.08-.44-.21-.14-.06c-.39-.18-.78-.38-1.19-.59l-.19-.1-.43-.21-.25-.14-.38-.2-.28-.15-.37-.2-.3-.16-.37-.2-.32-.18-.37-.2a3.54,3.54,0,0,0-.33-.19l-.38-.22-.34-.19-.4-.23-.34-.19-.42-.24-.35-.2-.47-.27-.32-.18-.49-.29-.34-.19-.81-.47-1-.6-.24-.14-.8-.47-.3-.18-.75-.45-.35-.21c-.23-.14-.46-.27-.69-.42l-.39-.24-.66-.4-.41-.26-.62-.39-.41-.26-.61-.4-.43-.28-.58-.38-.42-.29-.56-.38-.42-.3L99,64.89l-.42-.3-.51-.38-.41-.31-.48-.37-.4-.32-.45-.37-.38-.31-.43-.37-.37-.33-.39-.36-.35-.32-.2-.2-.33-.33Z"/><path class="cls-11" d="M121.8,56.49c-.06-.16-.12-.32-.19-.48l-.24-.55-.2-.42c-.09-.2-.19-.39-.29-.58l-.19-.38-.33-.59-.19-.36-.32-.52-.25-.41-.25-.38-.37-.55-.22-.3c-.15-.22-.31-.43-.47-.64l-.24-.31c-.19-.23-.38-.47-.58-.7l-.32-.37-.25-.28c-.15-.15-.3-.31-.44-.47l-.23-.23-.3-.29-.56-.52-.32-.27-.55-.46-.32-.26-.6-.43-.29-.2-.9-.57c-.23-.13-.47-.26-.7-.37l-.19-.1-.57-.26-.13-.06-.61-.22-.06,0-.54-.17-.27-.07-.22-.05-.3-.06-.2,0h-.1l-.69-.07h-.9l-.48.06-.14,0a5.07,5.07,0,0,0-.56.13l-.08,0a4,4,0,0,0-.45.15l-.14.06-.41.2-.13.07,6.1-3.54.06,0,.08,0a3.73,3.73,0,0,1,.4-.2l.08,0,.07,0,.44-.16.07,0h0l.55-.13h.14l.48-.05.1,0h0c.21,0,.42,0,.64,0h.12a5.23,5.23,0,0,1,.68.07h.1l.21,0,.29.05.23.06.21.05.06,0a5.16,5.16,0,0,1,.52.16l.08,0,.6.23h0l.1.05.57.26.19.09c.23.12.46.24.69.38s.61.36.91.56l.28.2.6.44.32.25c.19.15.38.3.56.46l.31.27.57.53.2.19.09.09.23.24c.15.15.3.31.44.47l.25.27.19.21.14.17.57.7.16.2h0l.08.1c.16.21.33.43.49.66l.16.23a.1.1,0,0,1,0,0l.39.58.21.31,0,0c.1.15.19.3.28.46s.18.28.26.42l0,0,.24.41c.08.16.17.31.25.46l0,.07L127,51c.08.14.15.29.23.44a.36.36,0,0,0,0,.09l.21.45.18.41a.5.5,0,0,1,0,.13c.07.16.14.32.2.48s.11.26.16.39,0,.09.05.13.13.37.2.55.09.25.13.38a2.41,2.41,0,0,1,.08.25l-6.1,3.55c-.07-.21-.14-.42-.22-.63s-.12-.37-.19-.55S121.88,56.67,121.8,56.49Z"/><path class="cls-12" d="M133,72.47c0-.24,0-.49-.09-.74a.78.78,0,0,0,0-.14,8.71,8.71,0,0,0-.17-.86c0-.14-.06-.29-.1-.43s-.1-.4-.16-.6-.07-.24-.11-.35-.14-.45-.22-.67l-.11-.29c-.11-.31-.24-.62-.37-.92a.61.61,0,0,0,0-.12c-.12-.27-.25-.54-.38-.81,0-.08-.09-.17-.13-.25-.13-.25-.27-.5-.41-.75l-.09-.16c-.16-.29-.34-.58-.52-.86l-.18-.25-.4-.59-.25-.33c-.12-.17-.24-.32-.37-.48l-.33-.41-.33-.36c-.18-.21-.36-.4-.56-.6s-.23-.24-.36-.36l-.28-.26q-.24-.23-.48-.42l-.28-.23c-.18-.15-.36-.28-.54-.41l-.25-.18c-.26-.18-.53-.35-.8-.51s-.39-.22-.58-.31l-.2-.1-.37-.16a2.67,2.67,0,0,0-.36-.14l-.15-.06a5.16,5.16,0,0,0-.52-.16l6.1-3.55h0l.5.16.17.06.29.12.05,0,.4.18.17.08.58.31c.27.16.54.33.8.51a2.48,2.48,0,0,1,.26.19l.53.39.29.24.47.42.29.27.18.16c.06.06.11.13.18.19l.56.6.18.19.14.18.33.39.21.27a2,2,0,0,1,.17.23,3.55,3.55,0,0,1,.23.31l.16.22c.1.13.18.26.27.39s.1.16.16.24l.06.1c.16.24.3.48.44.72l0,.05s0,.09.08.14l.29.52.12.24c.05.09.09.17.13.26a1.51,1.51,0,0,1,.11.22c.1.19.19.39.28.59a.54.54,0,0,0,.05.11s0,0,0,0c.11.25.21.51.31.76l.05.14c0,.09.06.18.1.27s.09.26.13.39.06.2.09.29.08.23.11.35.05.14.07.22l.09.38c0,.15.08.29.11.43l0,.16c.06.23.1.47.14.7a.77.77,0,0,0,0,.15c0,.1,0,.21.05.32s0,.28,0,.42l0,.29c0,.31,0,.62,0,.93,0,2.91-1.1,5.17-2.78,6.15l-6.1,3.55c1.68-1,2.77-3.25,2.78-6.15,0-.31,0-.62,0-.93Z"/><path class="cls-13" d="M103.28,43.82c.3.17.61.37.92.58,2.11-1.43,5.07-1.23,8.19.57,4.37,2.53,8.25,7.66,10,13.23a9,9,0,0,1,2.18.93c4.65,2.69,8.43,9.22,8.41,14.57,0,4-2.11,6.84-5,6.67-5.37.13-10.15-2.63-18.82-7.64-5.93-3.43-11.94-7.13-15.75-11-3.43-3.08-5.82-8.08-5.8-12.18,0-4.81,3.32-6.91,7.45-4.85C96.74,42.17,99.84,41.83,103.28,43.82Zm-9.41,16.8c3.63,3.72,9.79,7.5,15.34,10.7,8.76,5.06,13.15,7.6,18.29,7.47,2.44.16,4.28-2.34,4.29-5.8a15.85,15.85,0,0,0-7.19-12.45,7.31,7.31,0,0,0-2.32-.9l-.56-.1-.21-.75c-1.49-5.2-5.07-10.07-9.12-12.41-2.87-1.65-5.6-1.79-7.48-.36l-.22.16-.33-.24a11.72,11.72,0,0,0-1.08-.71c-3.09-1.79-5.87-1.41-7.25,1l-.16.29-.38-.21c-3.63-2-6.6-.25-6.61,3.93a15.11,15.11,0,0,0,5,10.39Z"/><g class="cls-4"><path d="M5.39,70.09c-3.92,2.26-3.94,5.92,0,8.18l12.83,7.46a15.55,15.55,0,0,0,14.12,0l16.63-9.6c3.92-2.26,3.94-5.93,0-8.18L36.14,60.49a15.55,15.55,0,0,0-14.12,0Z"/></g><g class="cls-2"><g class="cls-14"><g class="cls-2"><path class="cls-15" d="M44.19,75.53l-2.25-1.31a3,3,0,0,0,.7-.54L44.9,75a3.66,3.66,0,0,1-.71.55Z"/><path class="cls-16" d="M44.9,75l-2.26-1.3a2.73,2.73,0,0,0,.23-.25l2.26,1.31L44.9,75Z"/><path class="cls-17" d="M45.13,74.74l-2.26-1.31c.06-.06.12-.14.18-.21l2.25,1.31-.17.21Z"/><path class="cls-18" d="M45.3,74.53l-2.25-1.31.14-.18,2.25,1.3-.14.19Z"/><path class="cls-19" d="M45.44,74.34,43.19,73l.12-.19,2.25,1.31-.12.18Z"/><path class="cls-20" d="M45.56,74.16l-2.25-1.31a1.63,1.63,0,0,1,.11-.17L45.67,74l-.11.18Z"/><path class="cls-21" d="M45.67,74l-2.25-1.3.09-.18,2.26,1.3c0,.07-.07.12-.1.18Z"/><path class="cls-22" d="M45.77,73.8l-2.26-1.3a.76.76,0,0,0,.09-.18l2.26,1.3-.09.18Z"/><path class="cls-23" d="M45.86,73.62l-2.26-1.3.09-.19,2.25,1.31a1.42,1.42,0,0,1-.08.18Z"/><path class="cls-24" d="M45.94,73.44l-2.25-1.31.07-.18L46,73.25a1.54,1.54,0,0,1-.08.19Z"/><path class="cls-25" d="M46,73.25,43.76,72c0-.07.05-.14.08-.2l2.25,1.3c0,.07-.05.14-.07.2Z"/><path class="cls-26" d="M46.09,73.05l-2.25-1.3.06-.22,2.25,1.31a1.66,1.66,0,0,1-.06.21Z"/><path class="cls-27" d="M46.15,72.84,43.9,71.53a2.1,2.1,0,0,0,.06-.24l2.25,1.31a1.05,1.05,0,0,1-.06.24Z"/><path class="cls-28" d="M46.21,72.6,44,71.29A2.93,2.93,0,0,0,44,71l2.25,1.3c0,.1,0,.2,0,.3Z"/><path class="cls-29" d="M46.26,72.3,44,71a2.93,2.93,0,0,0,0-.41,1.5,1.5,0,0,0-.62-1.36l2.25,1.31a1.48,1.48,0,0,1,.62,1.36,2.8,2.8,0,0,1,0,.4Z"/></g></g></g><g class="cls-2"><g class="cls-30"><g class="cls-2"><path class="cls-24" d="M42.69,75.68l-2.25-1.3h0l2.25,1.31Z"/><path class="cls-23" d="M42.7,75.69l-2.25-1.31.11.05,2.25,1.31-.11,0Z"/><path class="cls-22" d="M42.81,75.74l-2.25-1.31.11,0,2.25,1.31-.11,0Z"/><path class="cls-21" d="M42.92,75.78l-2.25-1.31.12,0L43,75.8l-.12,0Z"/><path class="cls-20" d="M43,75.8l-2.25-1.3h.12l2.26,1.31-.13,0Z"/><path class="cls-19" d="M43.17,75.82l-2.26-1.31h.15l2.25,1.31Z"/><path class="cls-18" d="M43.31,75.82l-2.25-1.31h.15l2.26,1.3-.16,0Z"/><path class="cls-17" d="M43.47,75.8l-2.26-1.3.19,0,2.25,1.3-.18,0Z"/><path class="cls-16" d="M43.65,75.76l-2.25-1.3.25-.09,2.25,1.31-.25.08Z"/><path class="cls-15" d="M43.9,75.68l-2.25-1.31a1.61,1.61,0,0,0,.29-.15l2.25,1.31-.29.15Z"/></g></g></g><g class="cls-2"><g class="cls-31"><g class="cls-2"><path class="cls-32" d="M44.18,70.69l-2.26-1.31a2,2,0,0,1,.3-.14l2.25,1.3a1.59,1.59,0,0,0-.29.15Z"/><path class="cls-33" d="M44.47,70.54l-2.25-1.3a1.17,1.17,0,0,1,.24-.09l2.26,1.31-.25.08Z"/><path class="cls-34" d="M44.72,70.46l-2.26-1.31.19,0,2.25,1.3-.18,0Z"/><path class="cls-35" d="M44.9,70.41l-2.25-1.3h.16l2.25,1.3Z"/><path class="cls-36" d="M45.06,70.4l-2.25-1.3H43l2.25,1.3Z"/><path class="cls-37" d="M45.2,70.4,43,69.1h.12l2.26,1.3Z"/><path class="cls-38" d="M45.33,70.41l-2.26-1.3.12,0,2.25,1.3-.11,0Z"/><path class="cls-39" d="M45.44,70.44l-2.25-1.3.11,0,2.26,1.31-.12,0Z"/><path class="cls-40" d="M45.56,70.48,43.3,69.17l.11.06,2.25,1.3-.1,0Z"/><path class="cls-41" d="M45.66,70.53l-2.25-1.3h0l2.25,1.31a0,0,0,0,1,0,0Z"/></g></g></g><g class="cls-2"><g class="cls-42"><g class="cls-2"><path class="cls-43" d="M42.69,75.68l-2.25-1.3A1.47,1.47,0,0,1,39.83,73a2,2,0,0,1,0-.42l2.26,1.31a2.83,2.83,0,0,0,0,.41,1.49,1.49,0,0,0,.61,1.35Z"/><path class="cls-44" d="M42.11,73.92l-2.26-1.31a2.93,2.93,0,0,1,0-.29l2.25,1.3c0,.1,0,.2,0,.3Z"/><path class="cls-45" d="M42.15,73.62l-2.25-1.3.06-.24,2.25,1.3-.06.24Z"/><path class="cls-46" d="M42.21,73.38,40,72.08a1.87,1.87,0,0,1,.07-.22l2.25,1.31a1.72,1.72,0,0,1-.07.21Z"/><path class="cls-47" d="M42.28,73.17,40,71.86c0-.06,0-.13.07-.2L42.35,73a1.18,1.18,0,0,0-.07.2Z"/><path class="cls-41" d="M42.35,73,40.1,71.66c0-.06,0-.12.08-.19l2.25,1.31c0,.06,0,.13-.08.19Z"/><path class="cls-40" d="M42.43,72.78l-2.25-1.31a1.42,1.42,0,0,1,.08-.18l2.25,1.31a1,1,0,0,0-.08.18Z"/><path class="cls-39" d="M42.51,72.6l-2.25-1.31.09-.18,2.25,1.31-.09.18Z"/><path class="cls-38" d="M42.6,72.42l-2.25-1.31.1-.17,2.25,1.3-.1.18Z"/><path class="cls-37" d="M42.7,72.24l-2.25-1.3a1.74,1.74,0,0,1,.11-.18l2.25,1.3-.11.18Z"/><path class="cls-36" d="M42.81,72.06l-2.25-1.3c0-.06.08-.13.12-.18l2.25,1.3-.12.18Z"/><path class="cls-35" d="M42.93,71.88l-2.25-1.3.14-.2,2.25,1.31-.14.19Z"/><path class="cls-34" d="M43.07,71.69l-2.25-1.31a1.63,1.63,0,0,1,.17-.2l2.25,1.3-.17.21Z"/><path class="cls-33" d="M43.24,71.48,41,70.18a2.73,2.73,0,0,1,.23-.25l2.25,1.31c-.08.07-.15.16-.23.24Z"/><path class="cls-32" d="M43.47,71.24l-2.25-1.31a3.93,3.93,0,0,1,.7-.55l2.26,1.31a3.31,3.31,0,0,0-.71.55Z"/></g></g></g><path class="cls-48" d="M44.18,70.69c1.16-.68,2.1-.14,2.11,1.21a4.62,4.62,0,0,1-2.1,3.63c-1.16.67-2.11.13-2.11-1.2A4.59,4.59,0,0,1,44.18,70.69Z"/><polygon class="cls-49" points="26.89 77.93 24.64 76.63 59.27 56.57 61.53 57.88 26.89 77.93"/><polygon class="cls-50" points="61.53 57.88 59.27 56.57 59.06 4.69 61.31 6 61.53 57.88"/><polygon class="cls-51" points="61.31 6 61.53 57.88 26.89 77.93 26.67 26.06 61.31 6"/><polygon class="cls-52" points="26.67 26.06 24.42 24.75 59.06 4.69 61.31 6 26.67 26.06"/><polygon class="cls-53" points="26.89 77.93 24.64 76.63 24.42 24.75 26.67 26.06 26.89 77.93"/><path class="cls-54" d="M24.21,88.06,24,25.93l-2.26-1.31L22,86.76a1.28,1.28,0,0,0,.54,1.16l2.25,1.31A1.26,1.26,0,0,1,24.21,88.06Z"/><path class="cls-55" d="M62.43,1.56c1-.58,1.81-.12,1.82,1l.26,62.14a4,4,0,0,1-1.81,3.13L26,89.1c-1,.58-1.82.12-1.82-1L24,25.93a4,4,0,0,1,1.8-3.14Zm-.9,56.32L61.31,6,26.67,26.06l.22,51.87L61.53,57.88ZM44.19,75.53a4.62,4.62,0,0,0,2.1-3.63c0-1.35-.95-1.89-2.11-1.21a4.59,4.59,0,0,0-2.1,3.64c0,1.33,1,1.87,2.11,1.2Z"/><path class="cls-54" d="M61.46.13a0,0,0,0,0,0,0l-.09,0-.09,0L61.2,0h0l-.1,0H60.8l-.16,0-.07,0-.06,0-.08,0a1.42,1.42,0,0,0-.25.12L23.5,21.49a3.53,3.53,0,0,0-.34.24.87.87,0,0,0-.11.09l-.16.14-.06.07s0,0-.06.07a.46.46,0,0,0-.07.07,1.19,1.19,0,0,0-.15.18l-.05.06,0,0a.15.15,0,0,1,0,.06l-.11.16a1.09,1.09,0,0,0-.08.15l0,0h0l-.07.13a1,1,0,0,1-.07.15,1,1,0,0,0-.07.15h0l-.06.16c0,.05,0,.11-.07.17a.29.29,0,0,1,0,.09s0,0,0,0a.14.14,0,0,1,0,.06c0,.07,0,.14,0,.21s0,.08,0,.12,0,.05,0,.07,0,0,0,.06a2.16,2.16,0,0,0,0,.35L24,25.93a3.07,3.07,0,0,1,0-.42s0,0,0-.06a2.59,2.59,0,0,1,.09-.4l0,0a3.12,3.12,0,0,1,.15-.43h0a2.74,2.74,0,0,1,.21-.42s0,0,0,0a4.25,4.25,0,0,1,.25-.39s0,0,0,0L25,23.4l.06-.06a1.7,1.7,0,0,1,.24-.22.76.76,0,0,1,.09-.09,2.62,2.62,0,0,1,.34-.24L62.43,1.56a1.66,1.66,0,0,1,.33-.16l.06,0a2.11,2.11,0,0,1,.3-.07h0a.93.93,0,0,1,.29,0h0a.74.74,0,0,1,.26.1Z"/><polygon class="cls-56" points="62.47 94.81 62.44 105.98 33.22 89.12 33.26 77.94 62.47 94.81"/><polygon class="cls-57" points="62.44 96.75 62.42 104.37 34.37 88.17 34.54 80.65 62.44 96.75"/><polygon class="cls-58" points="34.54 80.65 34.37 88.17 35.08 87.84 35.27 81.08 34.54 80.65"/><polygon class="cls-59" points="62.42 104.37 34.37 88.17 35.08 87.84 62.47 103.19 62.42 104.37"/><polygon class="cls-60" points="62.47 103.19 35.27 81.08 35.27 81.08 62.44 96.75 62.47 103.19"/><polygon class="cls-59" points="101.86 80 100.85 79.5 100.94 80.54 101.86 80"/><polygon class="cls-58" points="100.7 72.59 100.89 80.58 103.03 80.65 103.03 82.42 62.44 105.98 62.47 94.81 100.7 72.59"/><polygon class="cls-59" points="102.22 71.71 62.47 94.81 33.26 77.94 73 54.84 102.22 71.71"/><polygon class="cls-61" points="62.44 96.75 100.75 74.89 100.95 81.35 62.42 104.37 62.44 96.75"/><polygon class="cls-59" points="62.42 104.37 103.03 80.65 101.86 80 62.42 103.16 62.42 104.37"/><polygon class="cls-58" points="102.22 71.71 102.22 74.01 100.75 74.89 100.53 72.69 102.22 71.71"/><polygon class="cls-62" points="62.44 96.75 62.44 96.75 100.94 80.54 100.75 74.89 62.44 96.75"/><polygon class="cls-63" points="87.77 74.89 86.13 75.85 65.66 64.03 67.3 63.07 87.77 74.89"/><polygon class="cls-63" points="82.17 78.15 80.52 79.1 60.05 67.28 61.69 66.33 82.17 78.15"/><polygon class="cls-63" points="84.87 76.58 83.23 77.53 62.76 65.71 64.4 64.75 84.87 76.58"/><polygon class="cls-63" points="90.48 73.32 88.83 74.27 68.36 62.45 70.01 61.5 90.48 73.32"/><polygon class="cls-64" points="92.31 69.11 91.45 68.69 91.53 69.57 92.31 69.11"/><polygon class="cls-65" points="91.32 62.81 91.48 69.6 93.3 69.66 93.3 71.17 58.81 91.19 58.84 81.69 91.32 62.81"/><polygon class="cls-66" points="58.84 81.69 58.81 91.19 33.98 76.86 34.01 67.36 58.84 81.69"/><polygon class="cls-57" points="58.81 83.34 58.79 89.82 34.96 76.05 35.09 69.67 58.81 83.34"/><polygon class="cls-64" points="92.61 62.06 58.84 81.69 34.01 67.36 67.79 47.73 92.61 62.06"/><polygon class="cls-64" points="35.09 69.67 34.96 76.05 35.56 75.77 35.72 70.02 35.09 69.67"/><polygon class="cls-64" points="58.79 89.82 34.96 76.05 35.56 75.77 58.84 88.82 58.79 89.82"/><polygon class="cls-61" points="58.81 83.34 91.36 64.77 91.53 70.26 58.79 89.82 58.81 83.34"/><polygon class="cls-64" points="58.79 89.82 93.3 69.66 92.31 69.11 58.79 88.79 58.79 89.82"/><polygon class="cls-65" points="92.61 62.06 92.61 64.02 91.36 64.77 91.18 62.9 92.61 62.06"/><polygon class="cls-62" points="58.81 83.34 58.81 83.34 91.53 69.57 91.36 64.77 58.81 83.34"/><polygon class="cls-60" points="58.84 88.82 35.72 70.02 35.72 70.02 58.81 83.34 58.84 88.82"/><polygon class="cls-66" points="80.34 64.77 78.94 65.58 61.54 55.54 62.94 54.73 80.34 64.77"/><polygon class="cls-66" points="75.57 67.54 74.18 68.35 56.78 58.3 58.18 57.49 75.57 67.54"/><polygon class="cls-66" points="77.87 66.2 76.48 67.01 59.08 56.97 60.47 56.16 77.87 66.2"/><polygon class="cls-66" points="82.64 63.43 81.24 64.25 63.84 54.2 65.24 53.39 82.64 63.43"/><g class="cls-67"><polygon class="cls-68" points="59.87 7.43 60.03 63.62 26.86 82.78 26.7 26.58 59.87 7.43"/><g class="cls-69"><polygon class="cls-70" points="63.02 9.12 63.18 65.31 30.01 84.47 29.84 28.27 63.02 9.12"/></g><g class="cls-71"><polygon class="cls-72" points="66.17 10.81 66.33 67 33.16 86.16 32.99 29.96 66.17 10.81"/></g><g class="cls-67"><polygon class="cls-73" points="69.32 12.5 69.48 68.68 36.3 87.84 36.14 31.65 69.32 12.5"/></g><g class="cls-74"><polygon class="cls-75" points="72.47 14.19 72.63 70.37 39.45 89.53 39.29 33.34 72.47 14.19"/></g><g class="cls-76"><polygon class="cls-77" points="75.62 15.88 75.78 72.06 42.6 91.22 42.44 35.02 75.62 15.88"/></g><g class="cls-78"><polygon class="cls-79" points="78.77 17.56 78.93 73.75 45.75 92.91 45.59 36.71 78.77 17.56"/></g></g><polygon class="cls-80" points="31.72 34.95 57.21 20.24 57.21 17.13 31.71 31.84 31.72 34.95"/><polygon class="cls-80" points="31.72 41.89 57.21 27.18 57.21 24.07 31.71 38.79 31.72 41.89"/><polygon class="cls-80" points="31.72 51.15 57.21 36.44 57.21 33.33 31.71 48.04 31.72 51.15"/><polygon class="cls-80" points="31.72 58.09 57.21 43.38 57.21 40.27 31.71 54.98 31.72 58.09"/><path class="cls-81" d="M81.87,97.44s-1.45.46-.93,1.2,2.48,1.68,2.81,2.15,2.09,2,2.51,1.8,1.64-.2,1.1-2.24S83.84,97,81.87,97.44Z"/><path class="cls-82" d="M87.33,68a12.65,12.65,0,0,1,1,8.84c-1.2,5.31-.84,12.77-.84,12.77s.94,9.53.14,11.26a4.3,4.3,0,0,1-4.68-.42L81.32,82.76l-.61-13S86,69.16,87.33,68Z"/><path class="cls-83" d="M81.32,82.76l-.48-10.18,2-.43s1.12,9.15.47,11.3c-.51,1.7,1,12.39,1,17.72a4.33,4.33,0,0,1-1.4-.74Z"/><path class="cls-81" d="M70.15,96.34s-.72,1.52-2,.88-.4-1-3.23-2.44-1.94-2.73-1.69-3c.56-.58,2.26.69,2.88,1a16.37,16.37,0,0,0,2.08.71l2.42,2.56Z"/><path class="cls-82" d="M84.09,69.43S85.7,74,82.93,75.78a24.23,24.23,0,0,0-6.57,6.73c-.75,1.51-4.92,13.68-4.92,13.68a5,5,0,0,1-5.11-1S69.68,80.93,70.85,79s6.43-10.91,6.43-10.91A17.33,17.33,0,0,0,84.09,69.43Z"/><path class="cls-83" d="M66.33,95.2S69.68,80.93,70.85,79s5.74-9.73,6.36-10.79l2,3.66a64.54,64.54,0,0,0-4.32,5.43c-.67,1.18-5.34,12.41-6.34,19.06A4.23,4.23,0,0,1,66.33,95.2Z"/><path class="cls-84" d="M87.11,48.79s-2.35-.28-1.4,3.35a36,36,0,0,0,3,7.35s1.93,7.27,1.89,8.6a2.35,2.35,0,0,1-.34,1.19,2,2,0,0,0-.16,1.4A1.89,1.89,0,0,1,90,71.8a.29.29,0,0,0,.34.44,1.58,1.58,0,0,0,.57-1.38A5.07,5.07,0,0,1,91.21,73c0,.75.67,1,1.4-.09a5.25,5.25,0,0,0,.06-3.14,7.51,7.51,0,0,1-.35-2.5c0-1,.13-6.13-1-10.31C90.68,54.77,89.06,48.62,87.11,48.79Z"/><path class="cls-85" d="M86.59,48.59c3.19-.71,5.78,9.93,5.87,12.72,0,0-1,.57-3.39,0C89.07,61.27,82.92,49.42,86.59,48.59Z"/><path class="cls-85" d="M92.46,61.31l.21,6.93a2.82,2.82,0,0,1-2.68,0L89,60.9Z"/><path class="cls-86" d="M87.19,48.41s2.21.21,1.11,4.25a37.82,37.82,0,0,0-1.5,9.91,48.27,48.27,0,0,0,1.29,6.35s.33,3.08-6.9,5.41c0,0-6,.42-5.22-3.69a54.57,54.57,0,0,0,.61-12.2c-.23-1.55-1.3-4.62,2.41-6.92S84.74,48.38,87.19,48.41Z"/><path class="cls-85" d="M76.58,58.44A54.57,54.57,0,0,1,76,70.64c-.55,2.85,2.16,3.68,3.87,3.66.46-1.83.08-5.5,1.15-9.51a15.46,15.46,0,0,0-.73-10.64,2.62,2.62,0,0,0-2.34-1.85C75.51,54.48,76.37,57.06,76.58,58.44Z"/><path class="cls-87" d="M85.19,46.51a6.69,6.69,0,0,0,.21,3.31c.53,1.18-4.19,1.89-4.22.82a4.62,4.62,0,0,0,0-3.92C80.7,45.61,85.19,46.51,85.19,46.51Z"/><path class="cls-88" d="M85.37,49.88a6,6,0,0,1-.26-3L81.6,48.4h0c.12,0,2.37.8,2.74,2.51C85.06,50.68,85.56,50.31,85.37,49.88Z"/><path class="cls-87" d="M80.67,40.81a8.76,8.76,0,0,0-.81,3.36c0,1.71-.24,2-.19,2.79A1.84,1.84,0,0,0,80,48.1c.48.54,1.52.8,3,.37,1.77-.52,3.76-2.82,3.18-5S83.4,39.22,80.67,40.81Z"/><path class="cls-84" d="M85.89,45.78a31,31,0,0,0-2.08-4.63,5.87,5.87,0,0,0-1.16-.92,3.93,3.93,0,0,0-2,.58A12.16,12.16,0,0,0,80.23,42c.38.5,1.18,1.1,1.28,1.51a5.19,5.19,0,0,1-.36,3c-.31.61.73,1.61.46,2.16a.19.19,0,0,0,0,.07A4.87,4.87,0,0,0,83,48.47,5,5,0,0,0,85.89,45.78Z"/><path class="cls-89" d="M80.22,40a2.27,2.27,0,0,0,1.09,2.41c.88.52.69,2,.63,2.28a7,7,0,0,0-.32,1.68c.19.33,1-.59,1.3-.5.85.24.46,1-.38,1.83s1.26,1.38,2.33.71c.56-.36.77-.59,1.58-2,1.18-2,1.41-4.52-.92-6S81.67,40.74,80.22,40Z"/><path class="cls-90" d="M84.87,48.44c.56-.36.77-.59,1.58-2,1.18-2,1.41-4.52-.92-6s-3.86.3-5.31-.41a2,2,0,0,0,0,.62c.76.19,2.83.76,3.3,1.72.59,1.18,1.36.87,1.2,2.27s.07,3.16-2.22,3.77A2.26,2.26,0,0,0,84.87,48.44Z"/><path class="cls-91" d="M81.36,49.9l-1.82,1.19s4.83,1.72,6.37-.54a1.38,1.38,0,0,0-.74-1.72S84.87,50.73,81.36,49.9Z"/><path class="cls-84" d="M68.72,73c.15,1.25.29,1.32.59,1.23,1.42-.39,2.65-2.78,2.64-3A2.26,2.26,0,0,1,72.17,70s0-.1.08-.16l-1.49-.64a6.11,6.11,0,0,1-1,1.35A3.62,3.62,0,0,0,68.72,73Z"/><path class="cls-86" d="M78.87,52.2c2.81,1.19-1.45,10.7-3,12.93l-3.55,5.75a2.55,2.55,0,0,1-2-1.51l3.22-6C73.71,62.65,75.75,50.87,78.87,52.2Z"/><g class="cls-92"><path class="cls-93" d="M77.21,106.31c4.56,2.63,11.93,2.63,16.46,0s4.51-6.91,0-9.54-11.93-2.63-16.47,0-4.51,6.9.06,9.54"/><path class="cls-94" d="M74.83,101.23c5.83,3.2,15.26,3.2,21,0s5.76-8.38-.06-11.58-15.26-3.2-21.06,0S69,98,74.83,101.23"/><path class="cls-95" d="M72.46,96.15c7.1,3.77,18.57,3.77,25.63,0s7-9.86-.08-13.63-18.58-3.76-25.64,0-7,9.87.09,13.63"/><path class="cls-96" d="M70.09,91.08c8.37,4.32,21.89,4.32,30.21,0s8.27-11.35-.1-15.68S78.3,71.07,70,75.4s-8.27,11.34.1,15.68"/><path class="cls-97" d="M67.71,86c9.64,4.89,25.22,4.89,34.79,0s9.53-12.83-.11-17.72-25.21-4.89-34.79,0S58.08,81.1,67.71,86"/><path class="cls-98" d="M65.34,80.92c10.91,5.45,28.54,5.45,39.37,0s10.78-14.31-.13-19.76-28.53-5.46-39.37,0-10.77,14.3.13,19.76"/><path class="cls-99" d="M63,75.84c12.18,6,31.85,6,44,0s12-15.79-.14-21.81-31.86-6-44,0-12,15.78.15,21.81"/></g></g></g></g></svg>